<?xml version="1.0" encoding="UTF-8" standalone="no" ?>
<COLLADA xmlns="http://www.collada.org/2005/11/COLLADASchema" version="1.4.1">
    <asset>
        <contributor>
            <authoring_tool>SketchUp 8.0.1</authoring_tool>
        </contributor>
        <created>2020-02-18T04:55:21Z</created>
        <modified>2020-02-18T04:55:21Z</modified>
        <unit meter="0.0254" name="inch" />
        <up_axis>Z_UP</up_axis>
    </asset>
    <library_cameras>
        <camera id="ID1" name="skp_camera_Last_Saved_SketchUp_View">
            <optics>
                <technique_common>
                    <perspective>
                        <yfov>35</yfov>
                        <aspect_ratio>0</aspect_ratio>
                        <znear>1</znear>
                        <zfar>1000</zfar>
                    </perspective>
                </technique_common>
            </optics>
        </camera>
    </library_cameras>
    <library_visual_scenes>
        <visual_scene id="ID2">
            <node name="SketchUp">
                <node name="skp_camera_Last_Saved_SketchUp_View">
                    <matrix>0.913938 -0.1440204 0.3794411 69.26292 0.4058539 0.3243179 -0.8544592 -103.4735 -1.249001e-16 0.9349203 0.3548577 83.46589 0 0 0 1</matrix>
                    <instance_camera url="#ID1" />
                </node>
                <node id="ID3" name="instance_0">
                    <matrix>0.9411283 0 0 -0.1574803 0 1 0 0 0 0 1 0 0 0 0 1</matrix>
                    <instance_node url="#ID4" />
                </node>
            </node>
        </visual_scene>
    </library_visual_scenes>
    <library_nodes>
        <node id="ID4" name="J-38_Dressing_Mirror">
            <instance_geometry url="#ID93">
                <bind_material>
                    <technique_common>
                        <instance_material symbol="Material2" target="#ID22">
                            <bind_vertex_input semantic="UVSET0" input_semantic="TEXCOORD" input_set="0" />
                        </instance_material>
                    </technique_common>
                </bind_material>
            </instance_geometry>
            <instance_geometry url="#ID97">
                <bind_material>
                    <technique_common>
                        <instance_material symbol="Material2" target="#ID22">
                            <bind_vertex_input semantic="UVSET0" input_semantic="TEXCOORD" input_set="0" />
                        </instance_material>
                    </technique_common>
                </bind_material>
            </instance_geometry>
            <instance_geometry url="#ID101">
                <bind_material>
                    <technique_common>
                        <instance_material symbol="Material2" target="#ID22">
                            <bind_vertex_input semantic="UVSET0" input_semantic="TEXCOORD" input_set="0" />
                        </instance_material>
                    </technique_common>
                </bind_material>
            </instance_geometry>
            <node id="ID5" name="group_0">
                <matrix>0.9142857 0 0 0.1574803 0 1.011111 0 0 0 0 0.9726344 0 0 0 0 1</matrix>
                <instance_geometry url="#ID6">
                    <bind_material>
                        <technique_common>
                            <instance_material symbol="Material2" target="#ID7">
                                <bind_vertex_input semantic="UVSET0" input_semantic="TEXCOORD" input_set="0" />
                            </instance_material>
                            <instance_material symbol="Material3" target="#ID17">
                                <bind_vertex_input semantic="UVSET0" input_semantic="TEXCOORD" input_set="0" />
                            </instance_material>
                            <instance_material symbol="Material4" target="#ID22">
                                <bind_vertex_input semantic="UVSET0" input_semantic="TEXCOORD" input_set="0" />
                            </instance_material>
                        </technique_common>
                    </bind_material>
                </instance_geometry>
            </node>
            <node id="ID28" name="group_1">
                <matrix>0.9142857 6.314799e-18 -2.094834e-19 1.957255 -6.887499e-18 1.001756 0.1372235 4.611954 1.132501e-18 -0.1320016 0.9636354 13.6221 0 0 0 1</matrix>
                <instance_geometry url="#ID29">
                    <bind_material>
                        <technique_common>
                            <instance_material symbol="Material2" target="#ID7">
                                <bind_vertex_input semantic="UVSET0" input_semantic="TEXCOORD" input_set="0" />
                            </instance_material>
                            <instance_material symbol="Material3" target="#ID17">
                                <bind_vertex_input semantic="UVSET0" input_semantic="TEXCOORD" input_set="0" />
                            </instance_material>
                            <instance_material symbol="Material4" target="#ID22">
                                <bind_vertex_input semantic="UVSET0" input_semantic="TEXCOORD" input_set="0" />
                            </instance_material>
                            <instance_material symbol="Material5" target="#ID35">
                                <bind_vertex_input semantic="UVSET0" input_semantic="TEXCOORD" input_set="0" />
                            </instance_material>
                        </technique_common>
                    </bind_material>
                </instance_geometry>
                <instance_geometry url="#ID41">
                    <bind_material>
                        <technique_common>
                            <instance_material symbol="Material2" target="#ID17">
                                <bind_vertex_input semantic="UVSET0" input_semantic="TEXCOORD" input_set="0" />
                            </instance_material>
                            <instance_material symbol="Material3" target="#ID22">
                                <bind_vertex_input semantic="UVSET0" input_semantic="TEXCOORD" input_set="0" />
                            </instance_material>
                            <instance_material symbol="Material4" target="#ID35">
                                <bind_vertex_input semantic="UVSET0" input_semantic="TEXCOORD" input_set="0" />
                            </instance_material>
                        </technique_common>
                    </bind_material>
                </instance_geometry>
                <instance_geometry url="#ID51">
                    <bind_material>
                        <technique_common>
                            <instance_material symbol="Material2" target="#ID17">
                                <bind_vertex_input semantic="UVSET0" input_semantic="TEXCOORD" input_set="0" />
                            </instance_material>
                            <instance_material symbol="Material3" target="#ID22">
                                <bind_vertex_input semantic="UVSET0" input_semantic="TEXCOORD" input_set="0" />
                            </instance_material>
                            <instance_material symbol="Material4" target="#ID35">
                                <bind_vertex_input semantic="UVSET0" input_semantic="TEXCOORD" input_set="0" />
                            </instance_material>
                        </technique_common>
                    </bind_material>
                </instance_geometry>
                <instance_geometry url="#ID61">
                    <bind_material>
                        <technique_common>
                            <instance_material symbol="Material2" target="#ID7">
                                <bind_vertex_input semantic="UVSET0" input_semantic="TEXCOORD" input_set="0" />
                            </instance_material>
                            <instance_material symbol="Material3" target="#ID17">
                                <bind_vertex_input semantic="UVSET0" input_semantic="TEXCOORD" input_set="0" />
                            </instance_material>
                            <instance_material symbol="Material4" target="#ID22">
                                <bind_vertex_input semantic="UVSET0" input_semantic="TEXCOORD" input_set="0" />
                            </instance_material>
                            <instance_material symbol="Material5" target="#ID35">
                                <bind_vertex_input semantic="UVSET0" input_semantic="TEXCOORD" input_set="0" />
                            </instance_material>
                        </technique_common>
                    </bind_material>
                </instance_geometry>
                <instance_geometry url="#ID71">
                    <bind_material>
                        <technique_common>
                            <instance_material symbol="Material2" target="#ID72">
                                <bind_vertex_input semantic="UVSET0" input_semantic="TEXCOORD" input_set="0" />
                            </instance_material>
                            <instance_material symbol="Material3" target="#ID35">
                                <bind_vertex_input semantic="UVSET0" input_semantic="TEXCOORD" input_set="0" />
                            </instance_material>
                        </technique_common>
                    </bind_material>
                </instance_geometry>
                <instance_geometry url="#ID81">
                    <bind_material>
                        <technique_common>
                            <instance_material symbol="Material2" target="#ID22">
                                <bind_vertex_input semantic="UVSET0" input_semantic="TEXCOORD" input_set="0" />
                            </instance_material>
                        </technique_common>
                    </bind_material>
                </instance_geometry>
                <instance_geometry url="#ID85">
                    <bind_material>
                        <technique_common>
                            <instance_material symbol="Material2" target="#ID22">
                                <bind_vertex_input semantic="UVSET0" input_semantic="TEXCOORD" input_set="0" />
                            </instance_material>
                        </technique_common>
                    </bind_material>
                </instance_geometry>
                <instance_geometry url="#ID89">
                    <bind_material>
                        <technique_common>
                            <instance_material symbol="Material2" target="#ID22">
                                <bind_vertex_input semantic="UVSET0" input_semantic="TEXCOORD" input_set="0" />
                            </instance_material>
                        </technique_common>
                    </bind_material>
                </instance_geometry>
            </node>
        </node>
    </library_nodes>
    <library_geometries>
        <geometry id="ID6">
            <mesh>
                <source id="ID12">
                    <float_array id="ID24" count="903">25.59055 7.874016 1.968504 25.59055 0 0 25.59055 0 1.968504 25.59055 17.71654 0 25.59055 9.84252 1.968504 25.59055 17.71654 1.968504 25.59055 17.71654 1.968504 25.59055 9.84252 1.968504 25.59055 17.71654 0 25.59055 7.874016 1.968504 25.59055 0 0 25.59055 0 1.968504 25.59055 9.84252 1.968504 25.59055 7.874016 1.968504 25.59055 17.71654 1.968504 25.59055 17.71654 0 25.59055 0 0 25.59055 0 1.968504 25.59055 9.84252 7.874016 25.59055 7.874016 7.874016 25.59055 9.84252 7.874016 25.59055 7.874016 7.874016 25.59055 9.84252 7.874016 25.59055 7.874016 7.874016 27.7313 7.874016 1.968504 25.59055 9.84252 1.968504 25.59055 7.874016 1.968504 27.7313 9.84252 1.968504 27.7313 9.84252 1.968504 27.7313 7.874016 1.968504 25.59055 9.84252 1.968504 25.59055 7.874016 1.968504 27.7313 9.84252 1.968504 27.7313 7.874016 1.968504 25.59055 17.71654 1.968504 27.7313 17.71654 1.968504 27.7313 17.71654 1.968504 25.59055 17.71654 1.968504 27.7313 17.71654 1.968504 25.59055 17.71654 1.968504 27.7313 17.71654 0 25.59055 17.71654 0 27.7313 17.71654 1.968504 27.7313 17.71654 1.968504 25.59055 17.71654 1.968504 27.7313 17.71654 0 25.59055 17.71654 0 27.7313 17.71654 0 27.7313 17.71654 0 25.59055 0 0 25.59055 17.71654 0 27.7313 0 0 27.7313 0 0 27.7313 17.71654 0 25.59055 0 0 25.59055 17.71654 0 27.7313 0 0 27.7313 0 1.968504 25.59055 0 0 27.7313 0 0 25.59055 0 1.968504 25.59055 0 1.968504 27.7313 0 1.968504 25.59055 0 0 27.7313 0 0 27.7313 0 1.968504 27.7313 0 1.968504 25.59055 0 1.968504 27.7313 0 1.968504 25.59055 0 1.968504 25.59055 9.84252 7.874016 1.968504 7.874016 7.874016 1.968504 9.84252 7.874016 25.59055 7.874016 7.874016 25.59055 7.874016 7.874016 25.59055 9.84252 7.874016 1.968504 7.874016 7.874016 1.968504 9.84252 7.874016 1.968504 9.84252 7.874016 1.968504 7.874016 7.874016 25.59055 9.84252 9.882997 25.59055 7.874016 9.882997 25.59055 9.84252 9.882997 25.59055 7.874016 9.882997 25.59055 9.84252 9.882997 25.59055 7.874016 9.882997 25.59055 9.84252 7.874016 27.7313 9.84252 1.968504 25.59055 9.84252 1.968504 27.7313 9.84252 38.18898 25.59055 9.84252 9.882997 25.59055 9.84252 38.18898 25.59055 9.84252 38.18898 25.59055 9.84252 9.882997 27.7313 9.84252 38.18898 25.59055 9.84252 7.874016 27.7313 9.84252 1.968504 25.59055 9.84252 1.968504 25.59055 9.84252 38.18898 27.7313 9.84252 38.18898 27.7313 7.874016 38.18898 25.59055 7.874016 1.968504 27.7313 7.874016 1.968504 25.59055 7.874016 7.874016 25.59055 7.874016 9.882997 25.59055 7.874016 38.18898 25.59055 7.874016 38.18898 27.7313 7.874016 38.18898 25.59055 7.874016 9.882997 25.59055 7.874016 7.874016 25.59055 7.874016 1.968504 27.7313 7.874016 1.968504 25.59055 7.874016 38.18898 27.7313 7.874016 38.18898 27.7313 17.71654 0 27.7313 0 1.968504 27.7313 0 0 27.7313 7.874016 1.968504 27.7313 9.84252 1.968504 27.7313 17.71654 1.968504 27.7313 17.71654 1.968504 27.7313 17.71654 0 27.7313 9.84252 1.968504 27.7313 7.874016 1.968504 27.7313 0 1.968504 27.7313 0 0 1.968504 9.84252 9.882997 25.59055 9.84252 7.874016 1.968504 9.84252 7.874016 25.59055 9.84252 9.882997 25.59055 9.84252 9.882997 1.968504 9.84252 9.882997 25.59055 9.84252 7.874016 1.968504 9.84252 7.874016 1.968504 9.84252 9.882997 1.968504 7.874016 7.874016 1.968504 7.874016 9.882997 1.968504 7.874016 9.882997 1.968504 7.874016 7.874016 1.968504 7.874016 9.882997 1.968504 9.84252 1.968504 1.968504 7.874016 7.874016 1.968504 7.874016 1.968504 1.968504 9.84252 7.874016 1.968504 9.84252 7.874016 1.968504 9.84252 1.968504 1.968504 7.874016 7.874016 1.968504 7.874016 1.968504 1.968504 9.84252 1.968504 1.968504 7.874016 1.968504 25.59055 8.858268 38.18898 25.59055 7.874016 38.18898 25.59055 9.84252 38.18898 25.59055 9.84252 38.18898 25.59055 8.858268 38.18898 25.59055 7.874016 38.18898 25.59055 8.858268 38.18898 27.7313 7.874016 38.18898 25.59055 8.858268 38.18898 25.59055 7.874016 38.18898 25.59055 9.84252 38.18898 27.7313 9.84252 38.18898 27.7313 9.84252 38.18898 27.7313 7.874016 38.18898 25.59055 9.84252 38.18898 25.59055 8.858268 38.18898 25.59055 7.874016 38.18898 27.7313 9.84252 1.968504 27.7313 7.874016 38.18898 27.7313 7.874016 1.968504 27.7313 9.84252 38.18898 27.7313 9.84252 38.18898 27.7313 9.84252 1.968504 27.7313 7.874016 38.18898 27.7313 7.874016 1.968504 -0.1722441 9.84252 38.18898 1.968504 9.84252 1.968504 -0.1722441 9.84252 1.968504 1.968504 9.84252 7.874016 1.968504 9.84252 9.882997 1.968504 9.84252 38.18898 1.968504 9.84252 38.18898 -0.1722441 9.84252 38.18898 1.968504 9.84252 9.882997 1.968504 9.84252 7.874016 1.968504 9.84252 1.968504 -0.1722441 9.84252 1.968504 -0.1722441 9.84252 1.968504 -0.1722441 9.84252 38.18898 1.968504 9.84252 38.18898 25.59055 7.874016 9.882997 1.968504 9.84252 9.882997 1.968504 7.874016 9.882997 25.59055 9.84252 9.882997 25.59055 9.84252 9.882997 25.59055 7.874016 9.882997 1.968504 9.84252 9.882997 1.968504 7.874016 9.882997 -0.1722441 7.874016 1.968504 1.968504 7.874016 1.968504 -0.1722441 7.874016 38.18898 1.968504 7.874016 38.18898 1.968504 7.874016 38.18898 -0.1722441 7.874016 38.18898 -0.1722441 7.874016 1.968504 1.968504 7.874016 1.968504 1.968504 7.874016 38.18898 -0.1722441 7.874016 38.18898 -0.1722441 7.874016 1.968504 1.968504 17.71654 0 1.968504 0 1.968504 1.968504 0 0 1.968504 17.71654 1.968504 1.968504 17.71654 1.968504 1.968504 17.71654 0 1.968504 0 1.968504 1.968504 0 0 1.968504 17.71654 0 1.968504 0 0 1.968504 17.71654 1.968504 1.968504 0 1.968504 1.968504 7.874016 9.882997 1.968504 9.84252 9.882997 1.968504 9.84252 9.882997 1.968504 7.874016 9.882997 1.968504 9.84252 1.968504 -0.1722441 17.71654 1.968504 -0.1722441 9.84252 1.968504 1.968504 17.71654 1.968504 1.968504 17.71654 1.968504 1.968504 9.84252 1.968504 -0.1722441 17.71654 1.968504 -0.1722441 9.84252 1.968504 -0.1722441 17.71654 1.968504 -0.1722441 9.84252 38.18898 -0.1722441 7.874016 1.968504 -0.1722441 7.874016 38.18898 -0.1722441 9.84252 1.968504 -0.1722441 9.84252 1.968504 -0.1722441 9.84252 38.18898 -0.1722441 7.874016 1.968504 -0.1722441 7.874016 38.18898 1.968504 7.874016 38.18898 -0.1722441 9.84252 38.18898 -0.1722441 7.874016 38.18898 1.968504 9.84252 38.18898 1.968504 9.84252 38.18898 1.968504 7.874016 38.18898 -0.1722441 9.84252 38.18898 -0.1722441 7.874016 38.18898 1.968504 9.84252 9.882997 1.968504 7.874016 38.18898 1.968504 7.874016 9.882997 1.968504 9.84252 38.18898 1.968504 9.84252 38.18898 1.968504 9.84252 9.882997 1.968504 7.874016 38.18898 1.968504 7.874016 9.882997 1.968504 0 1.968504 -0.1722441 7.874016 1.968504 -0.1722441 0 1.968504 1.968504 7.874016 1.968504 1.968504 7.874016 1.968504 1.968504 0 1.968504 -0.1722441 7.874016 1.968504 -0.1722441 0 1.968504 -0.1722441 0 1.968504 1.968504 17.71654 0 -0.1722441 0 0 -0.1722441 17.71654 0 1.968504 0 0 1.968504 0 0 1.968504 17.71654 0 -0.1722441 0 0 -0.1722441 17.71654 0 -0.1722441 17.71654 0 -0.1722441 0 0 -0.1722441 17.71654 1.968504 1.968504 17.71654 0 -0.1722441 17.71654 0 1.968504 17.71654 1.968504 1.968504 17.71654 1.968504 -0.1722441 17.71654 1.968504 1.968504 17.71654 0 -0.1722441 17.71654 0 1.968504 0 1.968504 -0.1722441 0 0 1.968504 0 0 -0.1722441 0 1.968504 -0.1722441 0 1.968504 1.968504 0 1.968504 -0.1722441 0 0 1.968504 0 0 -0.1722441 0 0 -0.1722441 0 1.968504 -0.1722441 17.71654 0 -0.1722441 17.71654 1.968504 -0.1722441 17.71654 1.968504 -0.1722441 17.71654 0 -0.1722441 0 0 -0.1722441 0 1.968504</float_array>
                    <technique_common>
                        <accessor count="301" source="#ID24" stride="3">
                            <param name="X" type="float" />
                            <param name="Y" type="float" />
                            <param name="Z" type="float" />
                        </accessor>
                    </technique_common>
                </source>
                <source id="ID13">
                    <float_array id="ID25" count="903">-1 0 0 -1 0 0 -1 0 0 -1 0 0 -1 0 0 -1 0 0 1 -0 -0 1 -0 -0 1 -0 -0 1 -0 -0 1 -0 -0 1 -0 -0 0 0 0 0 0 0 0 0 0 0 0 0 0 0 0 0 0 0 -1 0 0 -1 0 0 1 -0 -0 1 -0 -0 0 0 0 0 0 0 0 0 1 0 0 1 0 0 1 0 0 1 -0 -0 -1 -0 -0 -1 -0 -0 -1 -0 -0 -1 0 0 0 0 0 0 0 0 1 0 0 1 -0 -0 -1 -0 -0 -1 0 0 0 0 1 0 0 1 0 0 1 0 0 1 0 -0 -1 -0 -0 -1 -0 -0 -1 -0 -0 -1 -0 0 0 0 0 0 -1 0 0 -1 0 0 -1 0 0 -1 -0 -0 1 -0 -0 1 -0 -0 1 -0 -0 1 0 0 0 0 -1 0 0 -1 0 0 -1 0 0 -1 0 -0 1 -0 -0 1 -0 -0 1 -0 -0 1 -0 0 0 0 0 0 1 0 0 1 -0 -0 -1 -0 -0 -1 0 0 -1 0 0 -1 0 0 -1 0 0 -1 -0 -0 1 -0 -0 1 -0 -0 1 -0 -0 1 0 0 0 0 0 0 -1 0 0 -1 0 0 1 -0 -0 1 -0 -0 0 0 0 0 0 0 -0 1 -0 -0 1 -0 -0 1 -0 -0 1 -0 -0 1 -0 -0 1 -0 0 -1 0 0 -1 0 0 -1 0 0 -1 0 0 -1 0 0 -1 0 0 0 0 0 0 0 0 -1 0 0 -1 0 0 -1 0 0 -1 0 0 -1 0 0 -1 0 -0 1 -0 -0 1 -0 -0 1 -0 -0 1 -0 -0 1 -0 -0 1 -0 0 0 0 0 0 0 1 0 0 1 0 0 1 0 0 1 0 0 1 0 0 1 0 0 -1 -0 -0 -1 -0 -0 -1 -0 -0 -1 -0 -0 -1 -0 -0 -1 -0 -0 0 1 0 0 1 0 0 1 0 0 1 0 -0 -1 -0 -0 -1 -0 -0 -1 -0 -0 -1 -0 0 0 0 0 -1 0 0 -1 0 -0 1 -0 -0 1 -0 0 0 0 1 0 0 1 0 0 1 0 0 1 0 0 -1 -0 -0 -1 -0 -0 -1 -0 -0 -1 -0 -0 0 0 0 0 0 0 -1 0 0 -1 0 0 -1 0 0 1 -0 -0 1 -0 -0 1 -0 -0 0 0 0 0 0 1 0 0 1 0 0 1 0 0 1 0 0 1 -0 -0 -1 -0 -0 -1 -0 -0 -1 -0 -0 -1 -0 -0 -1 1 -0 8.582507e-16 1 -0 8.582507e-16 1 -0 8.582507e-16 1 -0 8.582507e-16 -1 0 -8.582507e-16 -1 0 -8.582507e-16 -1 0 -8.582507e-16 -1 0 -8.582507e-16 -0 1 -0 -0 1 -0 -0 1 -0 -0 1 -0 -0 1 -0 -0 1 -0 0 -1 0 0 -1 0 0 -1 0 0 -1 0 0 -1 0 0 -1 0 0 0 0 0 0 0 0 0 0 0 0 1 0 0 1 0 0 1 0 0 1 -0 -0 -1 -0 -0 -1 -0 -0 -1 -0 -0 -1 0 -1 0 0 -1 0 0 -1 0 0 -1 0 -0 1 -0 -0 1 -0 -0 1 -0 -0 1 -0 0 0 0 0 0 0 0 0 0 1 0 0 1 0 0 1 0 0 1 0 0 -1 -0 -0 -1 -0 -0 -1 -0 -0 -1 -0 -0 0 0 0 0 0 0 0 0 0 0 0 0 1 0 0 1 0 0 -1 -0 -0 -1 -0 -0 0 0 1 0 0 1 0 0 1 0 0 1 -0 -0 -1 -0 -0 -1 -0 -0 -1 -0 -0 -1 0 0 0 -1 0 0 -1 0 0 -1 0 0 -1 0 0 1 -0 -0 1 -0 -0 1 -0 -0 1 -0 -0 0 0 1 0 0 1 0 0 1 0 0 1 -0 -0 -1 -0 -0 -1 -0 -0 -1 -0 -0 -1 1 -5.639933e-17 3.91662e-18 1 -5.639933e-17 3.91662e-18 1 -5.639933e-17 3.91662e-18 1 -5.639933e-17 3.91662e-18 -1 5.639933e-17 -3.91662e-18 -1 5.639933e-17 -3.91662e-18 -1 5.639933e-17 -3.91662e-18 -1 5.639933e-17 -3.91662e-18 0 0 1 0 0 1 0 0 1 0 0 1 -0 -0 -1 -0 -0 -1 -0 -0 -1 -0 -0 -1 0 0 0 0 0 -1 0 0 -1 0 0 -1 0 0 -1 -0 -0 1 -0 -0 1 -0 -0 1 -0 -0 1 0 0 0 0 0 0 0 1 0 0 1 0 0 1 0 0 1 0 -0 -1 -0 -0 -1 -0 -0 -1 -0 -0 -1 -0 0 -1 0 0 -1 0 0 -1 0 0 -1 0 -0 1 -0 -0 1 -0 -0 1 -0 -0 1 -0 -1 0 0 -1 0 0 -1 0 0 -1 0 0 1 -0 -0 1 -0 -0 1 -0 -0 1 -0 -0</float_array>
                    <technique_common>
                        <accessor count="301" source="#ID25" stride="3">
                            <param name="X" type="float" />
                            <param name="Y" type="float" />
                            <param name="Z" type="float" />
                        </accessor>
                    </technique_common>
                </source>
                <source id="ID14">
                    <Name_array id="ID27" count="0" />
                    <technique_common>
                        <accessor count="0" source="#ID27" stride="1">
                            <param name="skp_material" type="Name" />
                        </accessor>
                    </technique_common>
                </source>
                <source id="ID16">
                    <float_array id="ID26" count="430">-0.1348148 -0.3637693 1.335068e-16 -0.3961905 1.169051e-16 -0.3637693 -0.3033333 -0.3961905 -0.1685185 -0.3637693 -0.3033333 -0.3637693 -0.3 0.03333333 -0.1666667 0.03333333 -0.3 0 -0.1333333 0.03333333 0 0 0 0.03333333 -0.1296846 -0.1685185 -0.03242115 -0.1348148 -0.1296846 -0.1348148 -0.03242115 -0.1685185 -0.1666667 0.1333333 -0.1333333 0.1333333 -0.1348148 0.4293333 -0.1685185 0.3961905 -0.1348148 0.3961905 -0.1685185 0.4293333 0.4695833 0.1666667 0.4695833 0.1333333 0.4333333 0.1666667 0.4333333 0.1333333 -0.1685185 0.4293333 -0.3033333 0.3961905 -0.1685185 0.3961905 -0.3033333 0.4293333 0.4695833 0.3 0.4333333 0.3 -0.3357545 -0.3961905 -0.3033333 -0.4293333 -0.3033333 -0.3961905 -0.3357545 -0.4293333 -0.4695833 0.03333333 -0.4333333 0.03333333 -0.4695833 0 -0.4333333 0 -0.3033333 -0.4293333 1.430072e-16 -0.3961905 -0.3033333 -0.3961905 1.549703e-16 -0.4293333 -0.4695833 0.3 -0.4333333 0.3 7.147061e-16 0.4293333 0.03242115 0.3961905 0.03242115 0.4293333 7.147061e-16 0.3961905 0.4333333 0.03333333 0.4695833 0.03333333 0.4333333 0 0.4695833 0 6.886144e-16 0.4293333 -0.1348148 0.3961905 6.886144e-16 0.3961905 -0.1348148 0.4293333 -0.4333333 0.1666667 -0.03333333 0.1333333 -0.03333333 0.1666667 -0.4333333 0.1333333 -0.1627724 -0.1685185 -0.1296846 -0.1348148 -0.1627724 -0.1348148 -0.1296846 -0.1685185 -0.1666667 0.1673521 -0.1333333 0.1673521 -0.1296846 -0.1685185 -0.03242115 -0.2016614 -0.03242115 -0.1685185 -0.6289703 -0.2016614 -0.1627724 -0.1685185 -0.6289703 -0.1685185 -0.4333333 0.6466667 -0.4333333 0.1673521 -0.4695833 0.6466667 -0.4333333 0.1333333 -0.6289703 -0.101672 -0.03242115 -0.1348148 -0.03242115 -0.101672 -0.1296846 -0.1348148 -0.1627724 -0.1348148 -0.6289703 -0.1348148 0.4333333 0.6466667 0.4695833 0.6466667 0.4333333 0.1673521 0.4333333 0.1333333 -0.3033333 -0.4293333 1.857372e-16 -0.4617545 1.72696e-16 -0.4293333 -0.1348148 -0.4617545 -0.1685185 -0.4617545 -0.3033333 -0.4617545 0.3 0.03333333 0.3 0 0.1666667 0.03333333 0.1333333 0.03333333 -0.03333333 0.1673521 -0.03333333 0.1333333 0.03333333 0.1333333 0.03333333 0.1673521 0.4617343 0.06417989 0.3644709 0.03047619 0.4617343 0.03047619 0.3644709 0.06417989 0.1666667 0.1333333 0.1333333 0.1333333 -0.6289703 -0.1516667 -0.1627724 -0.1348148 -0.6289703 -0.1348148 -0.1627724 -0.1685185 -0.6289703 -0.1685185 -0.1666667 0.6466667 -0.15 0.6466667 -0.1333333 0.6466667 -0.6621131 -0.1348148 -0.6289703 -0.1516667 -0.6289703 -0.1348148 -0.6289703 -0.1685185 -0.6621131 -0.1685185 0.4695833 0.1666667 0.4695833 0.1333333 0.4333333 0.15 -0.03242115 -0.2016614 -0.6289703 -0.2353651 -0.03242115 -0.2353651 -0.6289703 -0.2016614 0.1666667 0.6466667 0.1666667 0.03333333 0.1333333 0.6466667 0.1333333 0.03333333 -0.7637851 0.002666667 -0.167236 -0.03047619 -0.167236 0.002666667 -0.2644994 -0.03047619 -0.2975872 -0.03047619 -0.7637851 -0.03047619 -0.03333333 0.6466667 0.002916667 0.6466667 -0.03333333 0.03333333 0.002916667 0.03333333 0.03333333 0.1666667 0.03333333 0.1333333 0.3644709 0.03047619 0.4617343 -0.002666667 0.4617343 0.03047619 -0.1348148 -0.002666667 0.331383 0.03047619 -0.1348148 0.03047619 0.03333333 0.6466667 -0.002916667 0.6466667 -0.002916667 0.03333333 0.03333333 0.03333333 -0.03242115 -0.06289734 -0.3357545 -0.03047619 -0.3357545 -0.06289734 -0.2009397 -0.03047619 -0.167236 -0.03047619 -0.03242115 -0.03047619 0.3644709 0.06417989 0.331383 0.03047619 0.3644709 0.03047619 0.331383 0.06417989 0.1666667 0.1673521 0.1333333 0.1673521 -0.167236 -0.03047619 -0.03242115 0.002666667 -0.167236 0.002666667 -0.03242115 -0.03047619 0.03333333 0.3 -0.002916667 0.3 -0.002916667 0.1666667 -0.1348148 -0.03637037 0.4617343 -0.002666667 -0.1348148 -0.002666667 0.4617343 -0.03637037 -0.1348148 0.03047619 -0.1685185 -0.002666667 -0.1348148 -0.002666667 -0.1685185 0.03047619 0.03333333 0.1333333 -0.002916667 0.1333333 0.331383 0.06417989 -0.1348148 0.03047619 0.331383 0.03047619 -0.1348148 0.06417989 0.1666667 0.6466667 0.1333333 0.6466667 -8.117161e-18 0.03047619 -0.1348148 -0.002666667 7.102515e-19 -0.002666667 -0.1348148 0.03047619 0.03333333 0 -0.002916667 0 -0.3033333 -0.03047619 -9.625486e-19 0.002666667 -0.3033333 0.002666667 1.100055e-17 -0.03047619 -0.03333333 0 -0.03333333 0.3 0.002916667 0 0.002916667 0.3 -0.03242115 0.002666667 -0.03242115 -0.03047619 -0.1348148 0.03047619 0.03242115 -0.03047619 -9.625486e-19 0.002666667 0.03242115 0.002666667 -0.2009397 0.002666667 -0.3357545 0.03508781 -0.3357545 0.002666667 -0.03242115 0.03508781 -0.167236 0.002666667 -0.03242115 0.002666667</float_array>
                    <technique_common>
                        <accessor count="215" source="#ID26" stride="2">
                            <param name="S" type="float" />
                            <param name="T" type="float" />
                        </accessor>
                    </technique_common>
                </source>
                <vertices id="ID15">
                    <input semantic="POSITION" source="#ID12" />
                    <input semantic="NORMAL" source="#ID13" />
                </vertices>
                <triangles count="86" material="Material2">
                    <input offset="0" semantic="VERTEX" source="#ID15" />
                    <input offset="1" semantic="TEXCOORD" source="#ID16" />
                    <p>0 0 1 1 2 2 1 1 0 0 3 3 3 3 0 0 4 4 3 3 4 4 5 5 18 12 0 13 19 14 0 13 18 12 4 15 24 18 25 19 26 20 25 19 24 18 27 21 27 26 34 27 25 28 34 27 27 26 35 29 39 32 40 33 41 34 40 33 39 32 42 35 48 40 49 41 50 42 49 41 48 40 51 43 57 46 58 47 59 48 58 47 57 46 60 49 66 54 26 55 67 56 26 55 66 54 24 57 70 58 71 59 72 60 71 59 70 58 73 61 80 62 19 63 81 64 19 63 80 62 18 65 86 68 87 69 88 70 87 69 86 68 89 71 89 71 86 68 90 72 89 71 90 72 91 73 100 78 101 79 102 80 101 79 100 78 103 81 103 81 100 78 104 82 104 82 100 78 105 83 114 88 115 89 116 90 115 89 114 88 117 91 117 91 114 88 118 92 118 92 114 88 119 93 126 98 127 77 128 99 127 77 126 98 129 75 104 86 135 100 103 87 135 100 104 86 136 101 140 102 141 103 142 104 141 103 140 102 143 105 150 108 81 109 151 110 81 109 150 108 80 111 80 111 150 108 152 112 157 116 158 117 159 118 158 117 157 116 160 119 160 119 157 116 161 120 167 124 168 125 169 126 168 125 167 124 170 127 175 132 176 133 177 134 176 133 175 132 178 135 178 135 175 132 179 136 179 136 175 132 180 137 190 25 191 142 192 143 191 142 190 25 193 24 135 144 198 145 199 146 198 145 135 144 200 147 200 147 135 144 136 148 200 147 136 148 201 149 209 154 210 155 211 156 210 155 209 154 142 157 142 157 209 154 140 158 140 158 209 154 212 159 143 160 221 161 141 162 221 161 143 160 222 163 225 166 226 167 227 168 226 167 225 166 228 169 234 173 235 174 236 175 235 174 234 173 237 176 242 177 243 178 244 179 243 178 242 177 245 180 250 183 251 184 252 185 251 184 250 183 253 186 258 189 259 190 260 191 259 190 258 189 261 192 267 195 268 196 269 197 268 196 267 195 270 198 277 203 278 198 279 196 278 198 277 203 280 204 261 205 227 178 259 179 227 178 261 205 225 180 285 206 286 207 287 198 286 207 285 206 288 208 235 209 293 210 294 211 293 210 235 209 295 212 295 212 235 209 237 213 295 212 237 213 296 214</p>
                </triangles>
                <triangles count="86" material="Material3">
                    <input offset="0" semantic="VERTEX" source="#ID15" />
                    <input offset="1" semantic="TEXCOORD" source="#ID16" />
                    <p>6 6 7 7 8 8 7 7 9 9 8 8 8 8 9 9 10 10 11 11 10 10 9 9 7 7 20 16 9 9 21 17 9 9 20 16 28 22 29 23 30 24 31 25 30 24 29 23 36 30 28 22 37 31 30 24 37 31 28 22 43 36 44 37 45 38 46 39 45 38 44 37 52 38 53 44 54 39 55 45 54 39 53 44 61 50 62 51 63 52 64 53 63 52 62 51 29 23 68 53 31 25 69 52 31 25 68 53 74 61 75 58 76 59 77 60 76 59 75 58 20 16 82 66 21 17 83 67 21 17 82 66 92 74 93 75 94 76 93 75 95 77 94 76 94 76 95 77 96 36 97 37 96 36 95 77 106 84 107 85 108 86 108 86 107 85 109 87 109 87 107 85 110 50 111 51 110 50 107 85 120 94 121 95 122 96 122 96 121 95 123 97 123 97 121 95 124 11 125 10 124 11 121 95 130 75 131 98 132 77 133 99 132 77 131 98 137 101 108 86 138 100 109 87 138 100 108 86 144 106 145 96 146 107 147 97 146 107 145 96 153 113 154 114 82 66 82 66 154 114 83 67 155 115 83 67 154 114 162 121 163 122 164 24 164 24 163 122 165 123 166 25 165 123 163 122 171 128 172 129 173 130 174 131 173 130 172 129 181 138 182 139 183 98 183 98 182 139 184 99 184 99 182 139 185 140 186 141 185 140 182 139 194 24 195 25 196 142 197 143 196 142 195 25 202 150 137 101 203 151 137 101 138 100 203 151 203 151 138 100 204 152 205 153 204 152 138 100 213 94 214 95 145 96 145 96 214 95 147 97 147 97 214 95 215 11 216 10 215 11 214 95 223 164 144 106 224 165 146 107 224 165 144 106 229 170 230 142 231 171 232 172 231 171 230 142 238 7 239 113 240 9 241 115 240 9 239 113 246 142 247 181 248 172 249 182 248 172 247 181 254 187 255 164 256 188 257 165 256 188 255 164 262 143 263 193 264 182 265 194 264 182 263 193 271 199 272 200 273 201 274 202 273 201 272 200 281 140 282 141 283 199 284 201 283 199 282 141 230 142 262 143 232 172 264 182 232 172 262 143 289 152 290 153 291 194 292 193 291 194 290 153 297 6 238 7 298 8 238 7 240 9 298 8 298 8 240 9 299 10 300 11 299 10 240 9</p>
                </triangles>
                <lines count="69" material="Material4">
                    <input offset="0" semantic="VERTEX" source="#ID15" />
                    <p>12 13 12 14 15 14 15 16 16 17 13 17 22 23 22 12 13 23 32 33 12 32 13 33 32 38 14 38 47 38 15 47 47 56 16 56 56 65 17 65 33 65 78 22 79 23 78 79 22 84 23 85 84 85 98 84 99 98 32 99 112 113 85 112 33 113 78 134 84 134 139 85 139 79 148 149 148 78 79 149 98 156 156 112 113 99 187 148 188 187 189 188 134 189 134 139 206 207 208 207 208 149 139 206 217 218 219 217 148 219 149 220 220 218 187 233 233 219 207 188 187 208 189 206 208 266 266 220 275 276 275 217 276 218 233 275 266 276</p>
                </lines>
            </mesh>
        </geometry>
        <geometry id="ID29">
            <mesh>
                <source id="ID30">
                    <float_array id="ID37" count="849">2.140748 -8.881784e-16 60.62992 2.220446e-16 8.881784e-16 3.552714e-15 2.140748 -1.332268e-15 1.776357e-15 0 -2.664535e-15 24.40945 3.552714e-15 -8.881784e-16 60.62992 3.552714e-15 -8.881784e-16 60.62992 2.140748 -8.881784e-16 60.62992 0 -2.664535e-15 24.40945 2.220446e-16 8.881784e-16 3.552714e-15 2.140748 -1.332268e-15 1.776357e-15 2.220446e-16 8.881784e-16 3.552714e-15 2.140748 -1.332268e-15 1.776357e-15 2.140748 -8.881784e-16 60.62992 3.552714e-15 -8.881784e-16 60.62992 0 -2.664535e-15 24.40945 2.140748 1.968504 5.329071e-15 2.220446e-16 8.881784e-16 3.552714e-15 2.220446e-16 1.968504 0 2.140748 -1.332268e-15 1.776357e-15 2.140748 -1.332268e-15 1.776357e-15 2.140748 1.968504 5.329071e-15 2.220446e-16 8.881784e-16 3.552714e-15 2.220446e-16 1.968504 0 2.220446e-16 1.968504 0 2.140748 1.968504 5.329071e-15 2.140748 -1.332268e-15 1.776357e-15 2.140748 0.1968504 0.7874016 2.140748 -8.881784e-16 60.62992 2.140748 1.968504 5.329071e-15 2.140748 0.1964438 2.796355 2.140748 1.968504 0.7874016 2.140748 0.1968504 57.82013 2.140748 0.1968504 59.84252 2.140748 0.9838453 2.796355 2.140748 0.984252 57.82013 2.140748 1.968504 60.62992 2.140748 1.968504 59.84252 2.140748 1.968504 59.84252 2.140748 0.1968504 59.84252 2.140748 1.968504 60.62992 2.140748 0.1964438 2.796355 2.140748 -8.881784e-16 60.62992 2.140748 0.984252 57.82013 2.140748 0.9838453 2.796355 2.140748 0.1968504 57.82013 2.140748 1.968504 0.7874016 2.140748 1.968504 5.329071e-15 2.140748 0.1968504 0.7874016 2.140748 -1.332268e-15 1.776357e-15 2.140748 0.1968504 0.7874016 2.140748 1.968504 0.7874016 2.140748 0.1964438 2.796355 2.140748 0.9838453 2.796355 2.140748 0.984252 57.82013 2.140748 0.1968504 57.82013 2.140748 0.1968504 59.84252 2.140748 1.968504 59.84252 2.140748 1.968504 60.62992 2.140748 -8.881784e-16 60.62992 3.774758e-15 1.968504 60.62992 3.552714e-15 -8.881784e-16 60.62992 2.140748 1.968504 60.62992 2.140748 1.968504 60.62992 2.140748 -8.881784e-16 60.62992 3.774758e-15 1.968504 60.62992 3.552714e-15 -8.881784e-16 60.62992 3.774758e-15 1.968504 60.62992 3.552714e-15 -8.881784e-16 60.62992 0 1.968504 24.40945 0 -2.664535e-15 24.40945 3.774758e-15 1.968504 60.62992 3.774758e-15 1.968504 60.62992 3.552714e-15 -8.881784e-16 60.62992 0 1.968504 24.40945 0 -2.664535e-15 24.40945 0 1.968504 24.40945 0 1.968504 24.40945 2.220446e-16 8.881784e-16 3.552714e-15 0 -2.664535e-15 24.40945 2.220446e-16 1.968504 0 2.220446e-16 1.968504 0 0 1.968504 24.40945 2.220446e-16 8.881784e-16 3.552714e-15 0 -2.664535e-15 24.40945 0 1.968504 24.40945 2.140748 1.968504 5.329071e-15 2.220446e-16 1.968504 0 2.140748 1.968504 0.7874016 1.968504 1.968504 2.755906 1.968504 1.968504 57.87402 3.774758e-15 1.968504 60.62992 1.968504 1.968504 59.84252 2.140748 1.968504 59.84252 2.140748 1.968504 60.62992 21.65354 1.968504 0.7874016 21.4813 1.968504 0.7874016 21.65354 1.968504 2.755906 1.968504 1.968504 2.755906 2.140748 1.968504 0.7874016 21.65354 1.968504 2.755906 21.65354 1.968504 0.7874016 21.4813 1.968504 0.7874016 2.140748 1.968504 60.62992 3.774758e-15 1.968504 60.62992 2.140748 1.968504 59.84252 1.968504 1.968504 59.84252 1.968504 1.968504 57.87402 0 1.968504 24.40945 2.140748 1.968504 5.329071e-15 2.220446e-16 1.968504 0 1.968504 1.968504 59.84252 1.968504 1.968504 57.87402 1.968504 1.968504 2.755906 21.65354 1.968504 2.755906 21.65354 1.968504 0.7874016 21.4813 1.968504 0.7874016 1.968504 1.968504 59.84252 21.65354 1.968504 57.87402 1.968504 1.968504 57.87402 21.4813 1.968504 0.7874016 23.62205 1.968504 -5.329071e-15 21.4813 1.968504 -5.329071e-15 21.65354 1.968504 0.7874016 23.62205 1.968504 24.40945 21.65354 1.968504 2.755906 23.62205 1.968504 60.62992 21.4813 1.968504 59.84252 2.140748 1.968504 59.84252 21.4813 1.968504 60.62992 21.4813 1.968504 60.62992 21.4813 1.968504 59.84252 23.62205 1.968504 60.62992 2.140748 1.968504 59.84252 1.968504 1.968504 59.84252 21.65354 1.968504 57.87402 23.62205 1.968504 24.40945 21.65354 1.968504 2.755906 21.65354 1.968504 0.7874016 23.62205 1.968504 -5.329071e-15 21.4813 1.968504 0.7874016 21.4813 1.968504 -5.329071e-15 1.968504 1.968504 57.87402 23.62205 1.968504 60.62992 21.4813 1.968504 60.62992 23.62205 1.968504 24.40945 23.62205 1.968504 -5.329071e-15 21.4813 1.968504 -5.329071e-15 21.65354 1.968504 57.87402 21.4813 1.968504 59.84252 1.968504 0.984252 2.755906 1.968504 1.968504 57.87402 1.968504 0.984252 57.87402 1.968504 1.968504 2.755906 1.968504 1.968504 2.755906 1.968504 0.984252 2.755906 1.968504 1.968504 57.87402 1.968504 0.984252 57.87402 1.968504 0.984252 2.755906 1.968504 0.984252 57.87402 21.65354 1.968504 0.7874016 21.65354 0.984252 2.755906 21.65354 0.984252 0.7874016 21.65354 1.968504 2.755906 21.65354 1.968504 2.755906 21.65354 1.968504 0.7874016 21.65354 0.984252 2.755906 21.65354 0.984252 0.7874016 21.65354 0.984252 2.755906 21.65354 0.984252 0.7874016 21.65354 1.968504 0.7874016 21.4813 0.984252 0.7874016 21.4813 1.968504 0.7874016 21.65354 0.984252 0.7874016 21.65354 0.984252 0.7874016 21.65354 1.968504 0.7874016 21.4813 0.984252 0.7874016 21.4813 1.968504 0.7874016 21.4813 0.984252 0.7874016 23.62205 -4.440892e-15 60.62992 21.4813 1.968504 60.62992 21.4813 -4.440892e-15 60.62992 23.62205 1.968504 60.62992 23.62205 1.968504 60.62992 23.62205 -4.440892e-15 60.62992 21.4813 1.968504 60.62992 21.4813 -4.440892e-15 60.62992 23.62205 -4.440892e-15 60.62992 21.4813 -4.440892e-15 60.62992 23.62205 -8.881784e-16 24.40945 23.62205 1.968504 60.62992 23.62205 -4.440892e-15 60.62992 23.62205 1.968504 24.40945 23.62205 1.968504 24.40945 23.62205 -8.881784e-16 24.40945 23.62205 1.968504 60.62992 23.62205 -4.440892e-15 60.62992 23.62205 -8.881784e-16 24.40945 23.62205 0 0 23.62205 1.968504 -5.329071e-15 23.62205 1.968504 -5.329071e-15 23.62205 0 0 23.62205 0 0 23.62205 1.968504 -5.329071e-15 21.4813 0 0 21.4813 1.968504 -5.329071e-15 23.62205 0 0 23.62205 0 0 23.62205 1.968504 -5.329071e-15 21.4813 0 0 21.4813 1.968504 -5.329071e-15 21.4813 0 0 21.65354 1.968504 57.87402 21.65354 0.984252 2.755906 21.65354 0.984252 57.87402 21.65354 1.968504 2.755906 21.65354 1.968504 2.755906 21.65354 1.968504 57.87402 21.65354 0.984252 2.755906 21.65354 0.984252 57.87402 21.65354 0.984252 57.87402 21.4813 0 0 21.4813 0.1968504 0.7874016 21.4813 0.1964438 2.796355 21.4813 1.968504 -5.329071e-15 21.4813 0.984252 0.7874016 21.4813 1.968504 0.7874016 21.4813 0.1968504 57.82013 21.4813 0.1968504 59.84252 21.4813 0.9838453 2.796355 21.4813 0.984252 57.82013 21.4813 -4.440892e-15 60.62992 21.4813 1.968504 60.62992 21.4813 1.968504 59.84252 21.4813 1.968504 59.84252 21.4813 0.1968504 59.84252 21.4813 1.968504 60.62992 21.4813 0.1964438 2.796355 21.4813 0 0 21.4813 -4.440892e-15 60.62992 21.4813 0.984252 57.82013 21.4813 0.9838453 2.796355 21.4813 0.1968504 57.82013 21.4813 1.968504 0.7874016 21.4813 1.968504 -5.329071e-15 21.4813 0.984252 0.7874016 21.4813 0.1968504 0.7874016 21.4813 0.1968504 0.7874016 21.4813 0.1964438 2.796355 21.4813 0.9838453 2.796355 21.4813 0.984252 57.82013 21.4813 0.1968504 57.82013 21.4813 0.1968504 59.84252 23.62205 -8.881784e-16 24.40945 21.4813 0 0 23.62205 0 0 21.4813 -4.440892e-15 60.62992 23.62205 -4.440892e-15 60.62992 23.62205 -4.440892e-15 60.62992 23.62205 -8.881784e-16 24.40945 21.4813 -4.440892e-15 60.62992 21.4813 0 0 23.62205 0 0 21.65354 0.984252 57.87402 21.4813 0.984252 57.82013 21.65354 1.968504 57.87402 21.65354 1.968504 57.87402 21.4813 0.984252 57.82013 21.65354 0.984252 57.87402 21.65354 0.984252 57.87402 21.4813 0.984252 57.82013 21.4813 0.9838453 2.796355 21.4813 0.9838453 2.796355 21.4813 0.984252 57.82013 21.65354 0.984252 57.87402 21.65354 0.984252 57.87402 21.4813 0.984252 2.755906 21.65354 0.984252 2.755906 21.4813 0.9838453 2.796355 21.4813 0.9838453 2.796355 21.65354 0.984252 57.87402 21.4813 0.984252 2.755906 21.65354 0.984252 2.755906 21.4813 0.984252 2.755906</float_array>
                    <technique_common>
                        <accessor count="283" source="#ID37" stride="3">
                            <param name="X" type="float" />
                            <param name="Y" type="float" />
                            <param name="Z" type="float" />
                        </accessor>
                    </technique_common>
                </source>
                <source id="ID31">
                    <float_array id="ID38" count="849">-1.265101e-16 -1 2.747096e-17 -1.265101e-16 -1 2.747096e-17 -1.265101e-16 -1 2.747096e-17 -1.265101e-16 -1 2.747096e-17 -1.265101e-16 -1 2.747096e-17 1.265101e-16 1 -2.747096e-17 1.265101e-16 1 -2.747096e-17 1.265101e-16 1 -2.747096e-17 1.265101e-16 1 -2.747096e-17 1.265101e-16 1 -2.747096e-17 0 0 0 0 0 0 0 0 0 0 0 0 0 0 0 -9.151191e-16 -1.996181e-16 -1 -9.151191e-16 -1.996181e-16 -1 -9.151191e-16 -1.996181e-16 -1 -9.151191e-16 -1.996181e-16 -1 9.151191e-16 1.996181e-16 1 9.151191e-16 1.996181e-16 1 9.151191e-16 1.996181e-16 1 9.151191e-16 1.996181e-16 1 0 0 0 0 0 0 1 7.041055e-18 -1.667665e-16 1 7.041055e-18 -1.667665e-16 1 7.041055e-18 -1.667665e-16 1 7.041055e-18 -1.667665e-16 1 7.041055e-18 -1.667665e-16 1 7.041055e-18 -1.667665e-16 1 7.041055e-18 -1.667665e-16 1 7.041055e-18 -1.667665e-16 1 7.041055e-18 -1.667665e-16 1 7.041055e-18 -1.667665e-16 1 7.041055e-18 -1.667665e-16 1 7.041055e-18 -1.667665e-16 -1 -7.041055e-18 1.667665e-16 -1 -7.041055e-18 1.667665e-16 -1 -7.041055e-18 1.667665e-16 -1 -7.041055e-18 1.667665e-16 -1 -7.041055e-18 1.667665e-16 -1 -7.041055e-18 1.667665e-16 -1 -7.041055e-18 1.667665e-16 -1 -7.041055e-18 1.667665e-16 -1 -7.041055e-18 1.667665e-16 -1 -7.041055e-18 1.667665e-16 -1 -7.041055e-18 1.667665e-16 -1 -7.041055e-18 1.667665e-16 0 0 0 0 0 0 0 0 0 0 0 0 0 0 0 0 0 0 0 0 0 0 0 0 0 0 0 2.291225e-19 1.711012e-16 1 2.291225e-19 1.711012e-16 1 2.291225e-19 1.711012e-16 1 2.291225e-19 1.711012e-16 1 -2.291225e-19 -1.711012e-16 -1 -2.291225e-19 -1.711012e-16 -1 -2.291225e-19 -1.711012e-16 -1 -2.291225e-19 -1.711012e-16 -1 0 0 0 -1 2.138848e-17 1.049662e-16 -1 2.138848e-17 1.049662e-16 -1 2.138848e-17 1.049662e-16 -1 2.138848e-17 1.049662e-16 1 -2.138848e-17 -1.049662e-16 1 -2.138848e-17 -1.049662e-16 1 -2.138848e-17 -1.049662e-16 1 -2.138848e-17 -1.049662e-16 0 0 0 -1 -6.906811e-18 -8.867544e-18 -1 -6.906811e-18 -8.867544e-18 -1 -6.906811e-18 -8.867544e-18 -1 -6.906811e-18 -8.867544e-18 1 6.906811e-18 8.867544e-18 1 6.906811e-18 8.867544e-18 1 6.906811e-18 8.867544e-18 1 6.906811e-18 8.867544e-18 -6.906811e-18 1 1.098838e-16 -6.906811e-18 1 1.098838e-16 -6.906811e-18 1 1.098838e-16 -6.906811e-18 1 1.098838e-16 -6.906811e-18 1 1.098838e-16 -6.906811e-18 1 1.098838e-16 -6.906811e-18 1 1.098838e-16 -6.906811e-18 1 1.098838e-16 -6.906811e-18 1 1.098838e-16 -6.906811e-18 1 1.098838e-16 -6.906811e-18 1 1.098838e-16 -6.906811e-18 1 1.098838e-16 -6.906811e-18 1 1.098838e-16 6.906811e-18 -1 -1.098838e-16 6.906811e-18 -1 -1.098838e-16 6.906811e-18 -1 -1.098838e-16 6.906811e-18 -1 -1.098838e-16 6.906811e-18 -1 -1.098838e-16 6.906811e-18 -1 -1.098838e-16 6.906811e-18 -1 -1.098838e-16 6.906811e-18 -1 -1.098838e-16 6.906811e-18 -1 -1.098838e-16 6.906811e-18 -1 -1.098838e-16 6.906811e-18 -1 -1.098838e-16 6.906811e-18 -1 -1.098838e-16 6.906811e-18 -1 -1.098838e-16 0 0 0 0 0 0 0 0 0 0 0 0 0 0 0 0 0 0 -5.708943e-17 1 2.747096e-17 -5.708943e-17 1 2.747096e-17 -5.708943e-17 1 2.747096e-17 -5.708943e-17 1 2.747096e-17 -5.708943e-17 1 2.747096e-17 -5.708943e-17 1 2.747096e-17 -5.708943e-17 1 2.747096e-17 -5.708943e-17 1 2.747096e-17 -5.708943e-17 1 2.747096e-17 -5.708943e-17 1 2.747096e-17 -5.708943e-17 1 2.747096e-17 -5.708943e-17 1 2.747096e-17 -5.708943e-17 1 2.747096e-17 5.708943e-17 -1 -2.747096e-17 5.708943e-17 -1 -2.747096e-17 5.708943e-17 -1 -2.747096e-17 5.708943e-17 -1 -2.747096e-17 5.708943e-17 -1 -2.747096e-17 5.708943e-17 -1 -2.747096e-17 5.708943e-17 -1 -2.747096e-17 5.708943e-17 -1 -2.747096e-17 5.708943e-17 -1 -2.747096e-17 5.708943e-17 -1 -2.747096e-17 5.708943e-17 -1 -2.747096e-17 5.708943e-17 -1 -2.747096e-17 5.708943e-17 -1 -2.747096e-17 0 0 0 0 0 0 0 0 0 0 0 0 0 0 0 0 0 0 0 0 0 1 6.906811e-18 -1.76477e-16 1 6.906811e-18 -1.76477e-16 1 6.906811e-18 -1.76477e-16 1 6.906811e-18 -1.76477e-16 -1 -6.906811e-18 1.76477e-16 -1 -6.906811e-18 1.76477e-16 -1 -6.906811e-18 1.76477e-16 -1 -6.906811e-18 1.76477e-16 0 0 0 0 0 0 1 4.212972e-34 -2.106486e-34 1 4.212972e-34 -2.106486e-34 1 4.212972e-34 -2.106486e-34 1 4.212972e-34 -2.106486e-34 -1 -4.212972e-34 2.106486e-34 -1 -4.212972e-34 2.106486e-34 -1 -4.212972e-34 2.106486e-34 -1 -4.212972e-34 2.106486e-34 0 0 0 0 0 0 -2.291225e-19 -6.045576e-15 -1 -2.291225e-19 -6.045576e-15 -1 -2.291225e-19 -6.045576e-15 -1 -2.291225e-19 -6.045576e-15 -1 2.291225e-19 6.045576e-15 1 2.291225e-19 6.045576e-15 1 2.291225e-19 6.045576e-15 1 2.291225e-19 6.045576e-15 1 0 0 0 2.291225e-19 1.711012e-16 1 2.291225e-19 1.711012e-16 1 2.291225e-19 1.711012e-16 1 2.291225e-19 1.711012e-16 1 -2.291225e-19 -1.711012e-16 -1 -2.291225e-19 -1.711012e-16 -1 -2.291225e-19 -1.711012e-16 -1 -2.291225e-19 -1.711012e-16 -1 0 0 0 0 0 0 1 6.906811e-18 -2.291225e-19 1 6.906811e-18 -2.291225e-19 1 6.906811e-18 -2.291225e-19 1 6.906811e-18 -2.291225e-19 -1 -6.906811e-18 2.291225e-19 -1 -6.906811e-18 2.291225e-19 -1 -6.906811e-18 2.291225e-19 -1 -6.906811e-18 2.291225e-19 0 0 0 1 6.906811e-18 -2.291225e-19 1 6.906811e-18 -2.291225e-19 -1 -6.906811e-18 2.291225e-19 -1 -6.906811e-18 2.291225e-19 0 0 0 -6.426281e-18 -4.27753e-16 -1 -6.426281e-18 -4.27753e-16 -1 -6.426281e-18 -4.27753e-16 -1 -6.426281e-18 -4.27753e-16 -1 6.426281e-18 4.27753e-16 1 6.426281e-18 4.27753e-16 1 6.426281e-18 4.27753e-16 1 6.426281e-18 4.27753e-16 1 0 0 0 -1 1.011113e-32 1.289128e-16 -1 1.011113e-32 1.289128e-16 -1 1.011113e-32 1.289128e-16 -1 1.011113e-32 1.289128e-16 1 -1.011113e-32 -1.289128e-16 1 -1.011113e-32 -1.289128e-16 1 -1.011113e-32 -1.289128e-16 1 -1.011113e-32 -1.289128e-16 0 0 0 1 6.520809e-18 -1.333404e-16 1 6.520809e-18 -1.333404e-16 1 6.520809e-18 -1.333404e-16 1 6.520809e-18 -1.333404e-16 1 6.520809e-18 -1.333404e-16 1 6.520809e-18 -1.333404e-16 1 6.520809e-18 -1.333404e-16 1 6.520809e-18 -1.333404e-16 1 6.520809e-18 -1.333404e-16 1 6.520809e-18 -1.333404e-16 1 6.520809e-18 -1.333404e-16 1 6.520809e-18 -1.333404e-16 1 6.520809e-18 -1.333404e-16 -1 -6.520809e-18 1.333404e-16 -1 -6.520809e-18 1.333404e-16 -1 -6.520809e-18 1.333404e-16 -1 -6.520809e-18 1.333404e-16 -1 -6.520809e-18 1.333404e-16 -1 -6.520809e-18 1.333404e-16 -1 -6.520809e-18 1.333404e-16 -1 -6.520809e-18 1.333404e-16 -1 -6.520809e-18 1.333404e-16 -1 -6.520809e-18 1.333404e-16 -1 -6.520809e-18 1.333404e-16 -1 -6.520809e-18 1.333404e-16 -1 -6.520809e-18 1.333404e-16 0 0 0 0 0 0 0 0 0 0 0 0 0 0 0 0 0 0 8.64407e-17 -1 2.747096e-17 8.64407e-17 -1 2.747096e-17 8.64407e-17 -1 2.747096e-17 8.64407e-17 -1 2.747096e-17 8.64407e-17 -1 2.747096e-17 -8.64407e-17 1 -2.747096e-17 -8.64407e-17 1 -2.747096e-17 -8.64407e-17 1 -2.747096e-17 -8.64407e-17 1 -2.747096e-17 -8.64407e-17 1 -2.747096e-17 0.29856 4.976977e-14 -0.9543909 0.29856 4.976977e-14 -0.9543909 0.29856 4.976977e-14 -0.9543909 -0.29856 -4.976977e-14 0.9543909 -0.29856 -4.976977e-14 0.9543909 -0.29856 -4.976977e-14 0.9543909 -2.311794e-06 -1 7.389989e-06 -2.311794e-06 -1 7.389989e-06 -2.311794e-06 -1 7.389989e-06 2.311794e-06 1 -7.389989e-06 2.311794e-06 1 -7.389989e-06 2.311794e-06 1 -7.389989e-06 0.001181241 -0.9999993 -5.421513e-09 0.001181241 -0.9999993 -5.421513e-09 0.001181241 -0.9999993 -5.421513e-09 0.001181241 -0.9999993 -5.421513e-09 -0.001181241 0.9999993 5.421513e-09 -0.001181241 0.9999993 5.421513e-09 -0.001181241 0.9999993 5.421513e-09 -0.001181241 0.9999993 5.421513e-09 0 0 0</float_array>
                    <technique_common>
                        <accessor count="283" source="#ID38" stride="3">
                            <param name="X" type="float" />
                            <param name="Y" type="float" />
                            <param name="Z" type="float" />
                        </accessor>
                    </technique_common>
                </source>
                <source id="ID32">
                    <Name_array id="ID40" count="0" />
                    <technique_common>
                        <accessor count="0" source="#ID40" stride="1">
                            <param name="skp_material" type="Name" />
                        </accessor>
                    </technique_common>
                </source>
                <source id="ID34">
                    <float_array id="ID39" count="452">-1.22 0.2189786 -0.2353401 0.04528392 -0.2306676 0.07809576 -0.6336427 0.102003 -1.224672 0.1861667 6.015928e-17 1.026667 0.03625 1.026667 5.70807e-33 0.4133333 3.759955e-18 6.015928e-17 0.03625 3.007964e-17 -0.1973235 0.07334749 -0.2353401 0.04528392 -0.2019959 0.04053565 -0.2306676 0.07809576 -0.03625 -2.255973e-17 -0.03625 0.03333333 -3.759955e-18 1.503982e-17 -3.759955e-18 0.03333333 -0.2306676 0.07809576 -0.2430761 0.08326459 -1.22 0.2189786 -0.2262676 0.1114876 -0.2758582 0.0879258 -0.239116 0.1133173 -1.173711 0.2157888 -1.206712 0.2204881 -0.2740982 0.1012826 -1.171951 0.2291455 -1.2156 0.2523704 -1.202751 0.2505408 0.03333333 1.013333 0.003333333 1.013333 0.03333333 1.026667 0.003326448 0.04735162 -1.529506e-17 1.026667 0.01666667 0.9790876 0.01665978 0.04735162 0.003333333 0.9790876 0.03333333 0.01333333 0.03333333 9.628421e-17 0.003333333 0.01333333 -1.22 0.2189786 -1.258017 0.190915 -1.224672 0.1861667 -1.253344 0.2237268 0.03625 0.03333333 0.03625 -1.907037e-16 6.368401e-17 0.03333333 5.992405e-17 -1.907037e-16 -1.224672 0.1861667 -0.6387387 0.0687102 -0.6336427 0.102003 -1.229768 0.152874 -0.03333333 1.026667 1.503982e-17 1.026667 -0.03333333 0.4133333 4.511946e-17 0.4133333 -0.6387387 0.0687102 -0.2353401 0.04528392 -0.6336427 0.102003 -0.240436 0.01199114 -0.03333333 -3.538312e-35 -1.503982e-17 6.015928e-17 -0.588765 0.2652084 -0.2116882 0.1210779 -0.2024366 0.1529033 -0.2241504 0.1247006 -0.2545616 0.1363182 -1.126916 0.3899104 -1.162026 0.4318548 -1.158071 0.3989673 -1.158816 0.3964066 -1.171278 0.4000294 -0.3084783 -0.1653862 -0.3077339 -0.1628255 -0.3396338 -0.1563293 -0.03333333 0.04666667 -0.03625 0.01333333 -0.3666667 0.04666667 -0.3666667 0.01333333 -0.36375 0.01333333 -0.03625 1.026667 -6.414947e-17 1.026667 -0.03625 1.013333 -0.03333333 1.013333 -0.03333333 0.98 -2.30227e-19 0.4133333 -0.03625 8.657613e-17 -3.990182e-18 -3.662794e-18 -1.225062 0.09387121 -1.235906 -0.212421 -1.19294 0.08929709 -0.3040154 -0.3424304 -0.2958394 -0.3770719 -0.2911669 -0.34426 -0.3043913 -0.3450704 -0.694142 -0.3203528 -0.3365125 -0.3404963 -1.285172 -0.236189 -1.267651 -0.2052069 -1.225437 0.09123117 -1.280499 -0.2033772 -0.36375 1.026667 -0.36375 1.013333 -0.4 1.026667 -0.3666667 0.98 -0.4 0.4133333 -0.3666667 0.01333333 -0.4 -9.115463e-17 -0.36375 0.01333333 -0.36375 -9.115463e-17 -0.2590934 0.1200991 -1.126916 0.3899104 -1.131448 0.3736914 -0.2545616 0.1363182 0.03333333 0.04666667 0.01666667 0.04666667 0.03333333 0.98 0.01666667 0.98 0.08110778 0.3657143 0.0646061 0.3981577 0.06426752 0.3657143 0.08144636 0.3981577 0.03333333 0.04666667 0.03333333 0.01333333 0.01666667 0.04666667 0.01666667 0.01333333 0.08110778 0.3657143 0.06426752 0.3630476 0.08110778 0.3630476 0.06426752 0.3657143 -0.3666667 0.01666667 -0.3666667 0.03333333 -0.36375 0.01666667 -0.36375 0.03333333 0.05771995 -0.3961905 0.09140047 -0.3630476 0.05771995 -0.3630476 0.09140047 -0.3961905 0.4 0.03333333 0.4 -2.50863e-16 0.36375 0.03333333 0.36375 -2.50863e-16 -0.5820844 0.4640647 -1.168714 0.5816203 -1.173114 0.5482284 -0.5776844 0.4974566 0.03333333 0.4133333 -1.780255e-17 0.4133333 -7.796183e-17 1.026667 0.04729183 -1.395449 0.08517068 -0.9931502 0.05149016 -0.9931502 0.08097235 -1.395449 0.03333333 -9.014728e-17 -2.762724e-18 9.164901e-20 0.08097235 -1.395449 0.04729183 -1.428592 0.08097235 -1.428592 0.04729183 -1.395449 -0.4 -1.099544e-33 -0.4 0.03333333 -0.36375 -9.998981e-34 -0.36375 0.03333333 -0.6330677 0.3625351 -1.481625 0.6879045 -0.6395498 0.3469923 -1.475143 0.7034472 -0.03333333 0.04666667 -0.03333333 0.98 -0.01666667 0.04666667 -0.01666667 0.98 -0.1908277 0.3578697 -0.2032362 0.3630384 -0.2360184 0.3676994 -0.186428 0.3912616 -0.2014763 0.3763952 -0.1992764 0.3930911 -1.133872 0.4955551 -1.166873 0.5002542 -0.2342585 0.3810561 -1.132112 0.5089119 -1.180161 0.4987446 -1.175761 0.5321365 -1.162913 0.5303069 0.003333333 1.013333 0.003326448 0.04735162 -2.371944e-18 4.850258e-17 -7.757105e-17 1.026667 0.01666667 0.9790876 0.01665978 0.04735162 0.003333333 0.9790876 0.03333333 0.01333333 0.03333333 -4.173635e-17 0.01666667 0.01333333 0.003333333 0.01333333 -0.5820844 0.4640647 -0.1884543 0.3745338 -0.1837818 0.4073456 -1.177787 0.5154166 -1.173114 0.5482284 0.4 1.026667 0.4 0.4133333 0.36375 1.026667 0.36375 -8.63764e-34 0.4 -9.498436e-34 -0.6395498 0.3469923 -0.6369593 0.3459019 -0.6330677 0.3625351 0.03333333 0.6425321 0.01666667 0.639476 0.01666667 0.6425321 -1.132616 0.5116771 -1.132112 0.5089119 -0.2342585 0.3810561 0.36375 0.04735174 0.36375 0.9790877 0.3666666 0.9800001 -1.132505 0.511967 -0.2335123 0.3810846 -0.2331359 0.3837246 -0.2341723 0.3811787 0.3637694 0.04735162 0.3666861 0.98 0.3637694 0.04666667 0.3666861 0.04666667</float_array>
                    <technique_common>
                        <accessor count="226" source="#ID39" stride="2">
                            <param name="S" type="float" />
                            <param name="T" type="float" />
                        </accessor>
                    </technique_common>
                </source>
                <vertices id="ID33">
                    <input semantic="POSITION" source="#ID30" />
                    <input semantic="NORMAL" source="#ID31" />
                </vertices>
                <triangles count="77" material="Material2">
                    <input offset="0" semantic="VERTEX" source="#ID33" />
                    <input offset="1" semantic="TEXCOORD" source="#ID34" />
                    <p>0 0 1 1 2 2 1 1 0 0 3 3 3 3 0 0 4 4 15 10 16 11 17 12 16 11 15 10 18 13 25 18 26 19 27 20 26 19 25 18 28 21 27 20 26 19 29 22 26 19 28 21 30 23 29 22 31 24 32 25 31 24 29 22 33 26 31 24 33 26 34 27 27 20 32 25 35 28 32 25 27 20 29 22 35 28 32 25 36 29 58 41 59 42 60 43 59 42 58 41 61 44 67 49 68 50 69 51 68 50 67 49 70 52 76 57 77 58 78 59 77 58 76 57 79 60 84 63 85 64 86 65 85 64 84 63 87 66 87 66 84 63 88 67 88 67 84 63 89 68 89 68 84 63 90 69 89 68 90 69 91 70 91 70 90 69 92 71 92 71 90 69 93 72 87 66 94 73 95 74 94 73 87 66 96 75 96 75 87 66 88 67 116 89 117 90 118 91 119 92 120 93 121 94 120 93 119 92 122 95 120 93 122 95 123 96 123 96 122 95 124 97 123 96 124 97 117 90 123 96 117 90 125 98 125 98 117 90 126 99 126 99 117 90 116 89 126 99 116 89 127 100 125 98 126 99 128 101 149 111 150 112 151 113 150 112 149 111 152 114 159 119 160 120 161 121 160 120 159 119 162 122 169 127 170 128 171 129 170 128 169 127 172 130 178 135 179 136 180 137 179 136 178 135 181 138 188 143 189 144 190 145 189 144 188 143 191 146 197 150 191 151 188 152 191 151 197 150 198 153 202 156 203 157 204 158 203 157 202 156 205 159 211 164 212 165 213 166 212 165 211 164 214 167 220 172 221 173 222 174 221 173 220 172 223 175 221 173 223 175 224 176 224 176 223 175 225 177 222 174 226 178 227 179 226 178 222 174 228 180 226 178 228 180 229 181 230 182 227 179 231 183 227 179 230 182 220 172 227 179 220 172 222 174 231 183 227 179 232 184 252 196 253 197 254 198 253 197 252 196 255 199 255 199 252 196 256 200 262 206 263 207 264 208 268 212 269 213 270 214 274 218 275 219 276 220 275 219 274 218 277 221</p>
                </triangles>
                <triangles count="77" material="Material3">
                    <input offset="0" semantic="VERTEX" source="#ID33" />
                    <input offset="1" semantic="TEXCOORD" source="#ID34" />
                    <p>5 5 6 6 7 7 7 7 6 6 8 8 9 9 8 8 6 6 19 14 20 15 21 16 22 17 21 16 20 15 37 30 38 31 39 32 40 33 41 34 38 31 39 32 38 31 41 34 42 35 43 36 44 37 43 36 40 33 44 37 38 31 44 37 40 33 45 38 46 39 47 40 40 33 47 40 41 34 46 39 48 16 47 40 41 34 47 40 48 16 62 45 63 46 64 47 65 48 64 47 63 46 71 53 72 54 73 55 74 56 73 55 72 54 80 61 81 55 82 62 83 56 82 62 81 55 97 76 98 77 99 78 99 78 98 77 100 79 101 80 100 79 98 77 102 81 103 82 104 83 104 83 103 82 105 84 105 84 103 82 106 85 103 82 107 86 106 85 106 85 107 86 97 76 97 76 107 86 98 77 98 77 107 86 108 87 109 88 108 87 107 86 129 102 130 103 131 104 132 83 133 84 130 103 133 84 134 105 130 103 130 103 134 105 131 104 131 104 134 105 135 106 134 105 136 78 135 106 136 78 137 107 135 106 135 106 137 107 138 108 137 107 139 109 138 108 140 110 138 108 139 109 141 85 134 105 133 84 153 115 154 116 155 117 156 118 155 117 154 116 163 123 164 124 165 125 166 126 165 125 164 124 173 131 174 132 175 133 176 134 175 133 174 132 182 139 183 140 184 141 185 142 184 141 183 140 192 147 193 148 194 32 195 149 194 32 193 148 199 154 200 155 192 147 193 148 192 147 200 155 206 160 207 161 208 162 209 163 208 162 207 161 215 168 216 169 217 170 218 171 217 170 216 169 233 30 234 185 235 32 236 186 237 187 234 185 237 187 238 188 234 185 235 32 234 185 238 188 239 189 240 190 241 191 240 190 236 186 241 191 234 185 241 191 236 186 242 192 243 193 244 194 244 194 243 193 245 195 243 193 237 187 245 195 236 186 245 195 237 187 257 201 258 202 259 203 259 203 258 202 260 204 261 205 260 204 258 202 265 209 266 210 267 211 271 215 272 216 273 217 278 222 279 223 280 224 281 225 280 224 279 223</p>
                </triangles>
                <lines count="69" material="Material4">
                    <input offset="0" semantic="VERTEX" source="#ID33" />
                    <p>10 11 11 12 12 13 14 13 14 10 23 10 23 24 24 11 49 50 49 51 52 51 53 54 55 54 56 55 56 57 57 12 24 50 57 66 66 13 75 66 75 14 75 23 110 56 111 110 112 111 112 113 114 113 115 114 50 115 142 143 142 144 145 144 146 145 115 146 147 113 147 111 56 148 143 148 157 158 157 112 158 111 167 168 168 114 167 113 168 177 177 115 142 186 143 187 186 187 186 196 144 196 201 196 145 201 210 201 146 210 219 167 219 147 177 246 246 247 248 247 249 250 251 250 148 251 187 210 219 249 147 249 219 248 248 282 167 282</p>
                </lines>
                <lines count="2" material="Material5">
                    <input offset="0" semantic="VERTEX" source="#ID33" />
                    <p>52 53 249 248</p>
                </lines>
            </mesh>
        </geometry>
        <geometry id="ID41">
            <mesh>
                <source id="ID42">
                    <float_array id="ID47" count="159">21.4813 1.968504 59.84252 2.140748 0.1968504 59.84252 2.140748 1.968504 59.84252 21.4813 0.1968504 59.84252 21.4813 0.1968504 59.84252 21.4813 1.968504 59.84252 2.140748 0.1968504 59.84252 2.140748 1.968504 59.84252 2.140748 1.968504 59.84252 2.140748 0.1968504 59.84252 21.4813 1.968504 59.84252 21.4813 0.1968504 59.84252 21.4813 0.1968504 59.84252 2.140748 0.1968504 57.82013 21.4813 0.1968504 57.82013 2.140748 0.1968504 59.84252 2.140748 0.1968504 59.84252 21.4813 0.1968504 59.84252 2.140748 0.1968504 57.82013 21.4813 0.1968504 57.82013 21.4813 0.1968504 57.82013 2.140748 0.1968504 57.82013 21.4813 0.984252 57.82013 2.140748 0.1968504 57.82013 2.140748 0.984252 57.82013 21.4813 0.1968504 57.82013 21.4813 0.1968504 57.82013 21.4813 0.984252 57.82013 2.140748 0.1968504 57.82013 2.140748 0.984252 57.82013 21.4813 0.984252 57.82013 2.140748 0.984252 57.82013 21.65354 1.968504 57.87402 21.4813 0.984252 57.82013 2.140748 0.984252 57.82013 2.140748 0.984252 57.82013 21.4813 0.984252 57.82013 21.65354 1.968504 57.87402 21.65354 1.968504 57.87402 21.65354 1.968504 57.87402 2.140748 0.984252 57.82013 1.968504 0.984252 57.87402 1.968504 0.984252 57.87402 2.140748 0.984252 57.82013 21.65354 1.968504 57.87402 1.968504 0.984252 57.87402 21.65354 1.968504 57.87402 1.968504 0.984252 57.87402 1.968504 1.968504 57.87402 1.968504 1.968504 57.87402 1.968504 0.984252 57.87402 21.65354 1.968504 57.87402 1.968504 1.968504 57.87402</float_array>
                    <technique_common>
                        <accessor count="53" source="#ID47" stride="3">
                            <param name="X" type="float" />
                            <param name="Y" type="float" />
                            <param name="Z" type="float" />
                        </accessor>
                    </technique_common>
                </source>
                <source id="ID43">
                    <float_array id="ID48" count="159">0 8.55506e-17 -1 0 8.55506e-17 -1 0 8.55506e-17 -1 0 8.55506e-17 -1 -0 -8.55506e-17 1 -0 -8.55506e-17 1 -0 -8.55506e-17 1 -0 -8.55506e-17 1 0 0 0 0 0 0 0 0 0 0 0 0 6.906811e-18 -1 -1.73067e-15 6.906811e-18 -1 -1.73067e-15 6.906811e-18 -1 -1.73067e-15 6.906811e-18 -1 -1.73067e-15 -6.906811e-18 1 1.73067e-15 -6.906811e-18 1 1.73067e-15 -6.906811e-18 1 1.73067e-15 -6.906811e-18 1 1.73067e-15 0 0 0 0 0 0 -1.242967e-17 7.870655e-15 -1 -1.242967e-17 7.870655e-15 -1 -1.242967e-17 7.870655e-15 -1 -1.242967e-17 7.870655e-15 -1 1.242967e-17 -7.870655e-15 1 1.242967e-17 -7.870655e-15 1 1.242967e-17 -7.870655e-15 1 1.242967e-17 -7.870655e-15 1 0 0 0 0 0 0 -1.476499e-17 0.05466301 -0.9985049 -1.476499e-17 0.05466301 -0.9985049 -1.476499e-17 0.05466301 -0.9985049 1.476499e-17 -0.05466301 0.9985049 1.476499e-17 -0.05466301 0.9985049 1.476499e-17 -0.05466301 0.9985049 0 0 0 -0.04931325 0.9862651 -0.1576371 -0.04931325 0.9862651 -0.1576371 -0.04931325 0.9862651 -0.1576371 0.04931325 -0.9862651 0.1576371 0.04931325 -0.9862651 0.1576371 0.04931325 -0.9862651 0.1576371 0 0 0 -2.291225e-19 5.164404e-14 -1 -2.291225e-19 5.164404e-14 -1 -2.291225e-19 5.164404e-14 -1 2.291225e-19 -5.164404e-14 1 2.291225e-19 -5.164404e-14 1 2.291225e-19 -5.164404e-14 1 0 0 0</float_array>
                    <technique_common>
                        <accessor count="53" source="#ID48" stride="3">
                            <param name="X" type="float" />
                            <param name="Y" type="float" />
                            <param name="Z" type="float" />
                        </accessor>
                    </technique_common>
                </source>
                <source id="ID44">
                    <Name_array id="ID50" count="0" />
                    <technique_common>
                        <accessor count="0" source="#ID50" stride="1">
                            <param name="skp_material" type="Name" />
                        </accessor>
                    </technique_common>
                </source>
                <source id="ID46">
                    <float_array id="ID49" count="42">-0.36375 0.03333333 -0.03625 0.003333333 -0.03625 0.03333333 -0.36375 0.003333333 0.36375 1.013333 0.03625 0.9790876 0.36375 0.9790876 0.03625 1.013333 -0.36375 0.01666667 -0.03625 0.003333333 -0.03625 0.01666667 -0.36375 0.003333333 -0.3666667 0.08685324 -0.36375 0.07016162 -0.03625 0.07016162 -0.3678738 0.9701088 -0.03703707 0.9691848 -0.03412404 0.9701088 -0.3666667 0.03333333 -0.03333333 0.01666667 -0.03333333 0.03333333</float_array>
                    <technique_common>
                        <accessor count="21" source="#ID49" stride="2">
                            <param name="S" type="float" />
                            <param name="T" type="float" />
                        </accessor>
                    </technique_common>
                </source>
                <vertices id="ID45">
                    <input semantic="POSITION" source="#ID42" />
                    <input semantic="NORMAL" source="#ID43" />
                </vertices>
                <triangles count="18" material="Material2">
                    <input offset="0" semantic="VERTEX" source="#ID45" />
                    <input offset="1" semantic="TEXCOORD" source="#ID46" />
                    <p>0 0 1 1 2 2 1 1 0 0 3 3 4 3 5 0 6 1 7 2 6 1 5 0 12 4 13 5 14 6 13 5 12 4 15 7 16 7 17 4 18 5 19 6 18 5 17 4 22 8 23 9 24 10 23 9 22 8 25 11 26 11 27 8 28 9 29 10 28 9 27 8 32 12 33 13 34 14 35 14 36 13 37 12 39 15 40 16 41 17 42 17 43 16 44 15 46 18 47 19 48 20 49 20 50 19 51 18</p>
                </triangles>
                <lines count="15" material="Material3">
                    <input offset="0" semantic="VERTEX" source="#ID45" />
                    <p>8 9 8 10 10 11 9 11 11 20 9 21 20 21 30 20 31 21 38 31 38 30 45 31 38 45 38 52 45 52</p>
                </lines>
                <lines count="1" material="Material4">
                    <input offset="0" semantic="VERTEX" source="#ID45" />
                    <p>30 31</p>
                </lines>
            </mesh>
        </geometry>
        <geometry id="ID51">
            <mesh>
                <source id="ID52">
                    <float_array id="ID57" count="183">21.4813 1.968504 0.7874016 2.140748 0.1968504 0.7874016 2.140748 1.968504 0.7874016 21.4813 0.1968504 0.7874016 21.4813 0.984252 0.7874016 21.4813 0.984252 0.7874016 21.4813 1.968504 0.7874016 21.4813 0.1968504 0.7874016 2.140748 0.1968504 0.7874016 2.140748 1.968504 0.7874016 2.140748 1.968504 0.7874016 21.4813 1.968504 0.7874016 21.4813 0.984252 0.7874016 21.4813 0.1968504 0.7874016 2.140748 0.1968504 0.7874016 21.4813 0.1964438 2.796355 2.140748 0.1968504 0.7874016 21.4813 0.1968504 0.7874016 2.140748 0.1964438 2.796355 2.140748 0.1964438 2.796355 21.4813 0.1964438 2.796355 2.140748 0.1968504 0.7874016 21.4813 0.1968504 0.7874016 21.4813 0.1964438 2.796355 2.140748 0.1964438 2.796355 21.4813 0.1964438 2.796355 2.140748 0.9838453 2.796355 2.140748 0.1964438 2.796355 21.4813 0.9838453 2.796355 21.4813 0.9838453 2.796355 21.4813 0.1964438 2.796355 2.140748 0.9838453 2.796355 2.140748 0.1964438 2.796355 2.140748 0.9838453 2.796355 21.4813 0.9838453 2.796355 21.4813 0.9838453 2.796355 2.140748 0.984252 2.755906 21.4813 0.984252 2.755906 2.140748 0.9838453 2.796355 2.140748 0.9838453 2.796355 21.4813 0.9838453 2.796355 2.140748 0.984252 2.755906 21.4813 0.984252 2.755906 21.4813 0.984252 2.755906 2.140748 0.984252 2.755906 2.140748 0.984252 2.755906 1.968504 1.968504 2.755906 1.968504 0.984252 2.755906 21.65354 1.968504 2.755906 21.4813 0.984252 2.755906 21.65354 0.984252 2.755906 21.65354 0.984252 2.755906 21.4813 0.984252 2.755906 21.65354 1.968504 2.755906 2.140748 0.984252 2.755906 1.968504 1.968504 2.755906 1.968504 0.984252 2.755906 1.968504 0.984252 2.755906 1.968504 1.968504 2.755906 21.65354 0.984252 2.755906 21.65354 1.968504 2.755906</float_array>
                    <technique_common>
                        <accessor count="61" source="#ID57" stride="3">
                            <param name="X" type="float" />
                            <param name="Y" type="float" />
                            <param name="Z" type="float" />
                        </accessor>
                    </technique_common>
                </source>
                <source id="ID53">
                    <float_array id="ID58" count="183">-3.844231e-16 -1.853596e-15 -1 -3.844231e-16 -1.853596e-15 -1 -3.844231e-16 -1.853596e-15 -1 -3.844231e-16 -1.853596e-15 -1 -3.844231e-16 -1.853596e-15 -1 3.844231e-16 1.853596e-15 1 3.844231e-16 1.853596e-15 1 3.844231e-16 1.853596e-15 1 3.844231e-16 1.853596e-15 1 3.844231e-16 1.853596e-15 1 0 0 0 0 0 0 0 0 0 0 0 0 0 0 0 -3.238683e-17 -1 -0.0002024064 -3.238683e-17 -1 -0.0002024064 -3.238683e-17 -1 -0.0002024064 -3.238683e-17 -1 -0.0002024064 3.238683e-17 1 0.0002024064 3.238683e-17 1 0.0002024064 3.238683e-17 1 0.0002024064 3.238683e-17 1 0.0002024064 0 0 0 0 0 0 -8.725222e-17 -4.933418e-15 1 -8.725222e-17 -4.933418e-15 1 -8.725222e-17 -4.933418e-15 1 -8.725222e-17 -4.933418e-15 1 8.725222e-17 4.933418e-15 -1 8.725222e-17 4.933418e-15 -1 8.725222e-17 4.933418e-15 -1 8.725222e-17 4.933418e-15 -1 0 0 0 0 0 0 -3.816632e-17 -0.9999495 -0.01005205 -3.816632e-17 -0.9999495 -0.01005205 -3.816632e-17 -0.9999495 -0.01005205 -3.816632e-17 -0.9999495 -0.01005205 3.816632e-17 0.9999495 0.01005205 3.816632e-17 0.9999495 0.01005205 3.816632e-17 0.9999495 0.01005205 3.816632e-17 0.9999495 0.01005205 0 0 0 0 0 0 -1.217253e-16 -2.994271e-15 1 -1.217253e-16 -2.994271e-15 1 -1.217253e-16 -2.994271e-15 1 -1.217253e-16 -2.994271e-15 1 -1.217253e-16 -2.994271e-15 1 -1.217253e-16 -2.994271e-15 1 1.217253e-16 2.994271e-15 -1 1.217253e-16 2.994271e-15 -1 1.217253e-16 2.994271e-15 -1 1.217253e-16 2.994271e-15 -1 1.217253e-16 2.994271e-15 -1 1.217253e-16 2.994271e-15 -1 0 0 0 0 0 0 0 0 0 0 0 0</float_array>
                    <technique_common>
                        <accessor count="61" source="#ID58" stride="3">
                            <param name="X" type="float" />
                            <param name="Y" type="float" />
                            <param name="Z" type="float" />
                        </accessor>
                    </technique_common>
                </source>
                <source id="ID54">
                    <Name_array id="ID60" count="0" />
                    <technique_common>
                        <accessor count="0" source="#ID60" stride="1">
                            <param name="skp_material" type="Name" />
                        </accessor>
                    </technique_common>
                </source>
                <source id="ID56">
                    <float_array id="ID59" count="46">-0.36375 0.03333333 -0.03625 0.003333333 -0.03625 0.03333333 -0.36375 0.003333333 -0.36375 0.01666667 0.36375 0.04735094 0.03625 0.01333266 0.36375 0.01333266 0.03625 0.04735094 0.36375 0.003326448 0.03625 0.01665978 0.03625 0.003326448 0.36375 0.01665978 0.36375 0.04718176 0.03625 0.04649677 0.36375 0.04649677 0.03625 0.04718176 0.03625 0.01666667 0.03333333 0.03333333 0.03333333 0.01666667 0.3666667 0.03333333 0.36375 0.01666667 0.3666667 0.01666667</float_array>
                    <technique_common>
                        <accessor count="23" source="#ID59" stride="2">
                            <param name="S" type="float" />
                            <param name="T" type="float" />
                        </accessor>
                    </technique_common>
                </source>
                <vertices id="ID55">
                    <input semantic="POSITION" source="#ID52" />
                    <input semantic="NORMAL" source="#ID53" />
                </vertices>
                <triangles count="26" material="Material2">
                    <input offset="0" semantic="VERTEX" source="#ID55" />
                    <input offset="1" semantic="TEXCOORD" source="#ID56" />
                    <p>0 0 1 1 2 2 1 1 0 0 3 3 3 3 0 0 4 4 5 4 6 0 7 3 7 3 6 0 8 1 9 2 8 1 6 0 15 5 16 6 17 7 16 6 15 5 18 8 19 8 20 5 21 6 22 7 21 6 20 5 25 9 26 10 27 11 26 10 25 9 28 12 29 12 30 9 31 10 32 11 31 10 30 9 35 13 36 14 37 15 36 14 35 13 38 16 39 16 40 13 41 14 42 15 41 14 40 13 45 17 46 18 47 19 46 18 45 17 48 20 48 20 45 17 49 21 48 20 49 21 50 22 51 22 52 21 53 20 52 21 54 17 53 20 53 20 54 17 55 18 56 19 55 18 54 17</p>
                </triangles>
                <lines count="18" material="Material3">
                    <input offset="0" semantic="VERTEX" source="#ID55" />
                    <p>10 11 12 11 12 13 13 14 14 10 13 23 24 23 14 24 33 24 34 23 34 43 44 33 44 43 57 58 57 44 59 43 59 60 58 60</p>
                </lines>
                <lines count="1" material="Material4">
                    <input offset="0" semantic="VERTEX" source="#ID55" />
                    <p>33 34</p>
                </lines>
            </mesh>
        </geometry>
        <geometry id="ID61">
            <mesh>
                <source id="ID62">
                    <float_array id="ID67" count="69">2.140748 0.9838453 2.796355 1.968504 0.984252 2.755906 2.140748 0.984252 2.755906 2.140748 0.984252 2.755906 1.968504 0.984252 2.755906 2.140748 0.9838453 2.796355 2.140748 0.984252 2.755906 2.140748 0.9838453 2.796355 1.968504 0.984252 2.755906 1.968504 0.984252 57.87402 1.968504 0.984252 2.755906 2.140748 0.9838453 2.796355 2.140748 0.9838453 2.796355 1.968504 0.984252 2.755906 1.968504 0.984252 57.87402 1.968504 0.984252 57.87402 1.968504 0.984252 57.87402 2.140748 0.9838453 2.796355 2.140748 0.984252 57.82013 2.140748 0.984252 57.82013 2.140748 0.9838453 2.796355 1.968504 0.984252 57.87402 2.140748 0.984252 57.82013</float_array>
                    <technique_common>
                        <accessor count="23" source="#ID67" stride="3">
                            <param name="X" type="float" />
                            <param name="Y" type="float" />
                            <param name="Z" type="float" />
                        </accessor>
                    </technique_common>
                </source>
                <source id="ID63">
                    <float_array id="ID68" count="69">-4.407745e-18 -0.9999495 -0.01005205 -4.407745e-18 -0.9999495 -0.01005205 -4.407745e-18 -0.9999495 -0.01005205 4.407745e-18 0.9999495 0.01005205 4.407745e-18 0.9999495 0.01005205 4.407745e-18 0.9999495 0.01005205 0 0 0 0 0 0 0 0 0 -0.002360743 -0.9999972 0 -0.002360743 -0.9999972 0 -0.002360743 -0.9999972 0 0.002360743 0.9999972 -0 0.002360743 0.9999972 -0 0.002360743 0.9999972 -0 0 0 0 2.311794e-06 -1 7.389989e-06 2.311794e-06 -1 7.389989e-06 2.311794e-06 -1 7.389989e-06 -2.311794e-06 1 -7.389989e-06 -2.311794e-06 1 -7.389989e-06 -2.311794e-06 1 -7.389989e-06 0 0 0</float_array>
                    <technique_common>
                        <accessor count="23" source="#ID68" stride="3">
                            <param name="X" type="float" />
                            <param name="Y" type="float" />
                            <param name="Z" type="float" />
                        </accessor>
                    </technique_common>
                </source>
                <source id="ID64">
                    <Name_array id="ID70" count="0" />
                    <technique_common>
                        <accessor count="0" source="#ID70" stride="1">
                            <param name="skp_material" type="Name" />
                        </accessor>
                    </technique_common>
                </source>
                <source id="ID66">
                    <float_array id="ID69" count="32">-0.2765322 0.08435715 -0.2762471 0.08162324 -0.2758721 0.0842634 0.03625 0.04649677 0.03333333 0.04649677 0.03625 0.04718176 -1.175688 0.2093644 0.03621057 0.04735162 0.03329389 0.04666667 0.03329389 0.98 -1.175581 0.2099602 -0.2764716 0.0846186 -1.174325 0.212475 0.03625004 0.9790877 0.03625004 0.04735174 0.03333337 0.9800001</float_array>
                    <technique_common>
                        <accessor count="16" source="#ID69" stride="2">
                            <param name="S" type="float" />
                            <param name="T" type="float" />
                        </accessor>
                    </technique_common>
                </source>
                <vertices id="ID65">
                    <input semantic="POSITION" source="#ID62" />
                    <input semantic="NORMAL" source="#ID63" />
                </vertices>
                <triangles count="3" material="Material2">
                    <input offset="0" semantic="VERTEX" source="#ID65" />
                    <input offset="1" semantic="TEXCOORD" source="#ID66" />
                    <p>0 0 1 1 2 2 9 6 10 1 11 0 16 10 17 11 18 12</p>
                </triangles>
                <triangles count="3" material="Material3">
                    <input offset="0" semantic="VERTEX" source="#ID65" />
                    <input offset="1" semantic="TEXCOORD" source="#ID66" />
                    <p>3 3 4 4 5 5 12 7 13 8 14 9 19 13 20 14 21 15</p>
                </triangles>
                <lines count="6" material="Material4">
                    <input offset="0" semantic="VERTEX" source="#ID65" />
                    <p>6 7 7 8 8 6 8 15 7 15 15 22</p>
                </lines>
                <lines count="1" material="Material5">
                    <input offset="0" semantic="VERTEX" source="#ID65" />
                    <p>7 22</p>
                </lines>
            </mesh>
        </geometry>
        <geometry id="ID71">
            <mesh>
                <source id="ID74">
                    <float_array id="ID78" count="36">21.4813 0.984252 57.82013 2.140748 0.9838453 2.796355 21.4813 0.9838453 2.796355 2.140748 0.984252 57.82013 2.140748 0.984252 57.82013 21.4813 0.984252 57.82013 2.140748 0.9838453 2.796355 21.4813 0.9838453 2.796355 21.4813 0.984252 57.82013 21.4813 0.9838453 2.796355 2.140748 0.984252 57.82013 2.140748 0.9838453 2.796355</float_array>
                    <technique_common>
                        <accessor count="12" source="#ID78" stride="3">
                            <param name="X" type="float" />
                            <param name="Y" type="float" />
                            <param name="Z" type="float" />
                        </accessor>
                    </technique_common>
                </source>
                <source id="ID75">
                    <float_array id="ID79" count="36">-7.401498e-17 -1 7.389989e-06 -7.401498e-17 -1 7.389989e-06 -7.401498e-17 -1 7.389989e-06 -7.401498e-17 -1 7.389989e-06 7.401498e-17 1 -7.389989e-06 7.401498e-17 1 -7.389989e-06 7.401498e-17 1 -7.389989e-06 7.401498e-17 1 -7.389989e-06 0 0 0 0 0 0 0 0 0 0 0 0</float_array>
                    <technique_common>
                        <accessor count="12" source="#ID79" stride="3">
                            <param name="X" type="float" />
                            <param name="Y" type="float" />
                            <param name="Z" type="float" />
                        </accessor>
                    </technique_common>
                </source>
                <source id="ID76">
                    <Name_array id="ID80" count="0" />
                    <technique_common>
                        <accessor count="0" source="#ID80" stride="1">
                            <param name="skp_material" type="Name" />
                        </accessor>
                    </technique_common>
                </source>
                <vertices id="ID77">
                    <input semantic="POSITION" source="#ID74" />
                    <input semantic="NORMAL" source="#ID75" />
                </vertices>
                <triangles count="4" material="Material2">
                    <input offset="0" semantic="VERTEX" source="#ID77" />
                    <p>0 1 2 1 0 3 4 5 6 7 6 5</p>
                </triangles>
                <lines count="4" material="Material3">
                    <input offset="0" semantic="VERTEX" source="#ID77" />
                    <p>8 9 8 10 11 10 11 9</p>
                </lines>
            </mesh>
        </geometry>
        <geometry id="ID81">
            <mesh>
                <source id="ID82">
                    <float_array id="ID84" count="9">1.968504 0.984252 2.755906 1.968504 0.984252 0.7874016 1.968504 0.984252 7.105427e-15</float_array>
                    <technique_common>
                        <accessor count="3" source="#ID84" stride="3">
                            <param name="X" type="float" />
                            <param name="Y" type="float" />
                            <param name="Z" type="float" />
                        </accessor>
                    </technique_common>
                </source>
                <vertices id="ID83">
                    <input semantic="POSITION" source="#ID82" />
                </vertices>
                <lines count="2" material="Material2">
                    <input offset="0" semantic="VERTEX" source="#ID83" />
                    <p>1 0 2 1</p>
                </lines>
            </mesh>
        </geometry>
        <geometry id="ID85">
            <mesh>
                <source id="ID86">
                    <float_array id="ID88" count="6">1.968504 0.984252 59.84252 1.968504 0.984252 57.87402</float_array>
                    <technique_common>
                        <accessor count="2" source="#ID88" stride="3">
                            <param name="X" type="float" />
                            <param name="Y" type="float" />
                            <param name="Z" type="float" />
                        </accessor>
                    </technique_common>
                </source>
                <vertices id="ID87">
                    <input semantic="POSITION" source="#ID86" />
                </vertices>
                <lines count="1" material="Material2">
                    <input offset="0" semantic="VERTEX" source="#ID87" />
                    <p>1 0</p>
                </lines>
            </mesh>
        </geometry>
        <geometry id="ID89">
            <mesh>
                <source id="ID90">
                    <float_array id="ID92" count="6">1.968504 2.233189 0.8236589 1.968504 1.968504 2.755906</float_array>
                    <technique_common>
                        <accessor count="2" source="#ID92" stride="3">
                            <param name="X" type="float" />
                            <param name="Y" type="float" />
                            <param name="Z" type="float" />
                        </accessor>
                    </technique_common>
                </source>
                <vertices id="ID91">
                    <input semantic="POSITION" source="#ID90" />
                </vertices>
                <lines count="1" material="Material2">
                    <input offset="0" semantic="VERTEX" source="#ID91" />
                    <p>1 0</p>
                </lines>
            </mesh>
        </geometry>
        <geometry id="ID93">
            <mesh>
                <source id="ID94">
                    <float_array id="ID96" count="12">23.55456 7.961505 37.14391 23.55456 8.956693 37.14391 25.35433 7.961505 37.14391 25.35433 8.956693 37.14391</float_array>
                    <technique_common>
                        <accessor count="4" source="#ID96" stride="3">
                            <param name="X" type="float" />
                            <param name="Y" type="float" />
                            <param name="Z" type="float" />
                        </accessor>
                    </technique_common>
                </source>
                <vertices id="ID95">
                    <input semantic="POSITION" source="#ID94" />
                </vertices>
                <lines count="3" material="Material2">
                    <input offset="0" semantic="VERTEX" source="#ID95" />
                    <p>1 0 0 2 3 2</p>
                </lines>
            </mesh>
        </geometry>
        <geometry id="ID97">
            <mesh>
                <source id="ID98">
                    <float_array id="ID100" count="12">1.957255 7.961505 37.14391 0.1574803 7.961505 37.14391 1.957255 9.951881 37.14391 0.1574803 8.956693 37.14391</float_array>
                    <technique_common>
                        <accessor count="4" source="#ID100" stride="3">
                            <param name="X" type="float" />
                            <param name="Y" type="float" />
                            <param name="Z" type="float" />
                        </accessor>
                    </technique_common>
                </source>
                <vertices id="ID99">
                    <input semantic="POSITION" source="#ID98" />
                </vertices>
                <lines count="3" material="Material2">
                    <input offset="0" semantic="VERTEX" source="#ID99" />
                    <p>1 0 0 2 3 1</p>
                </lines>
            </mesh>
        </geometry>
        <geometry id="ID101">
            <mesh>
                <source id="ID102">
                    <float_array id="ID104" count="6">1.957255 7.961505 9.573173 1.957255 9.951881 9.573173</float_array>
                    <technique_common>
                        <accessor count="2" source="#ID104" stride="3">
                            <param name="X" type="float" />
                            <param name="Y" type="float" />
                            <param name="Z" type="float" />
                        </accessor>
                    </technique_common>
                </source>
                <vertices id="ID103">
                    <input semantic="POSITION" source="#ID102" />
                </vertices>
                <lines count="1" material="Material2">
                    <input offset="0" semantic="VERTEX" source="#ID103" />
                    <p>1 0</p>
                </lines>
            </mesh>
        </geometry>
    </library_geometries>
    <library_materials>
        <material id="ID7" name="JOHN_KELLY">
            <instance_effect url="#ID8" />
        </material>
        <material id="ID17" name="JOHN_KELLY_0">
            <instance_effect url="#ID18" />
        </material>
        <material id="ID22" name="edge_color20114699255">
            <instance_effect url="#ID23" />
        </material>
        <material id="ID35" name="edge_color186186186255">
            <instance_effect url="#ID36" />
        </material>
        <material id="ID72" name="Chrom">
            <instance_effect url="#ID73" />
        </material>
    </library_materials>
    <library_effects>
        <effect id="ID8">
            <profile_COMMON>
                <newparam sid="ID10">
                    <surface type="2D">
                        <init_from>ID9</init_from>
                    </surface>
                </newparam>
                <newparam sid="ID11">
                    <sampler2D>
                        <source>ID10</source>
                    </sampler2D>
                </newparam>
                <technique sid="COMMON">
                    <lambert>
                        <diffuse>
                            <texture texture="ID11" texcoord="UVSET0" />
                        </diffuse>
                    </lambert>
                </technique>
            </profile_COMMON>
        </effect>
        <effect id="ID18">
            <profile_COMMON>
                <newparam sid="ID20">
                    <surface type="2D">
                        <init_from>ID19</init_from>
                    </surface>
                </newparam>
                <newparam sid="ID21">
                    <sampler2D>
                        <source>ID20</source>
                    </sampler2D>
                </newparam>
                <technique sid="COMMON">
                    <lambert>
                        <diffuse>
                            <texture texture="ID21" texcoord="UVSET0" />
                        </diffuse>
                    </lambert>
                </technique>
            </profile_COMMON>
        </effect>
        <effect id="ID23">
            <profile_COMMON>
                <technique sid="COMMON">
                    <constant>
                        <transparent opaque="A_ONE">
                            <color>0.7882353 0.572549 0.3882353 1</color>
                        </transparent>
                        <transparency>
                            <float>1</float>
                        </transparency>
                    </constant>
                </technique>
            </profile_COMMON>
        </effect>
        <effect id="ID36">
            <profile_COMMON>
                <technique sid="COMMON">
                    <constant>
                        <transparent opaque="A_ONE">
                            <color>0.7294118 0.7294118 0.7294118 1</color>
                        </transparent>
                        <transparency>
                            <float>1</float>
                        </transparency>
                    </constant>
                </technique>
            </profile_COMMON>
        </effect>
        <effect id="ID73">
            <profile_COMMON>
                <technique sid="COMMON">
                    <lambert>
                        <diffuse>
                            <color>0.7294118 0.7294118 0.7294118 1</color>
                        </diffuse>
                    </lambert>
                </technique>
            </profile_COMMON>
        </effect>
    </library_effects>
    <library_images>
        <image id="ID9">
            <init_from>model/JOHN_KELLY.jpg</init_from>
        </image>
        <image id="ID19">
            <init_from>model/JOHN_KELLY_0.jpg</init_from>
        </image>
    </library_images>
    <scene>
        <instance_visual_scene url="#ID2" />
    </scene>
</COLLADA>
